M48
; DRILL file {KiCad (5.99.0-1932-g3091bb145)} date Tue Jul 21 07:55:09 2020
; FORMAT={-:-/ absolute / inch / decimal}
; #@! TF.CreationDate,2020-07-21T07:55:09+02:00
; #@! TF.GenerationSoftware,Kicad,Pcbnew,(5.99.0-1932-g3091bb145)
; #@! TF.FileFunction,Plated,1,2,PTH
FMAT,2
INCH
T1C0.0157
T2C0.0315
T3C0.0394
T4C0.0400
T5C0.0591
%
G90
G05
T1
X2.5512Y-1.9685
X2.7087Y-1.9685
X2.835Y-2.4
X2.9025Y-2.27
X2.9925Y-2.4
T2
X3.1299Y-2.4953
X3.1299Y-2.7953
X3.4299Y-2.4953
X3.4299Y-2.7953
X3.6299Y-2.4953
X3.6299Y-2.7953
X3.8299Y-2.4953
X3.8299Y-2.7953
X3.1299Y-1.1961
X3.1299Y-1.4961
X3.4299Y-1.1961
X3.4299Y-1.4961
X3.6299Y-1.1961
X3.6299Y-1.4961
X3.8299Y-1.1961
X3.8299Y-1.4961
X3.1299Y-1.6291
X3.1299Y-1.9291
X3.4299Y-1.6291
X3.4299Y-1.9291
X3.6299Y-1.6291
X3.6299Y-1.9291
X3.8299Y-1.6291
X3.8299Y-1.9291
X3.1299Y-2.0622
X3.1299Y-2.3622
X3.4299Y-2.0622
X3.4299Y-2.3622
X3.6299Y-2.0622
X3.6299Y-2.3622
X3.8299Y-2.0622
X3.8299Y-2.3622
T3
X2.4803Y-2.9843
X2.4803Y-3.5906
X3.6378Y-3.189
X3.6378Y-3.3858
T4
X2.05Y-1.5004
X2.05Y-1.6004
X2.05Y-1.7004
X2.05Y-1.8004
X2.05Y-1.9004
X2.05Y-2.0004
X2.05Y-2.1004
X2.05Y-2.2004
X2.95Y-1.5004
X2.95Y-1.6004
X2.95Y-1.7004
X2.95Y-1.8004
X2.95Y-1.9004
X2.95Y-2.0004
X2.95Y-2.1004
X2.95Y-2.2004
T5
X4.0157Y-1.6579
X4.0157Y-1.8329
X4.0157Y-2.0079
X4.0157Y-2.185
X4.0157Y-2.36
X4.0157Y-2.535
X4.0157Y-1.2598
X4.0157Y-1.4598
T0
M30
