G04 #@! TF.GenerationSoftware,KiCad,Pcbnew,(5.99.0-1932-g3091bb145)*
G04 #@! TF.CreationDate,2020-07-21T07:54:25+02:00*
G04 #@! TF.ProjectId,RESTfan,52455354-6661-46e2-9e6b-696361645f70,rev?*
G04 #@! TF.SameCoordinates,Original*
G04 #@! TF.FileFunction,Copper,L1,Top*
G04 #@! TF.FilePolarity,Positive*
%FSLAX46Y46*%
G04 Gerber Fmt 4.6, Leading zero omitted, Abs format (unit mm)*
G04 Created by KiCad (PCBNEW (5.99.0-1932-g3091bb145)) date 2020-07-21 07:54:25*
%MOMM*%
%LPD*%
G01*
G04 APERTURE LIST*
G04 #@! TA.AperFunction,ComponentPad*
%ADD10C,2.300000*%
G04 #@! TD*
G04 #@! TA.AperFunction,ComponentPad*
%ADD11R,2.300000X2.000000*%
G04 #@! TD*
G04 #@! TA.AperFunction,ComponentPad*
%ADD12C,3.500120*%
G04 #@! TD*
G04 #@! TA.AperFunction,ComponentPad*
%ADD13R,3.500120X3.500120*%
G04 #@! TD*
G04 #@! TA.AperFunction,ComponentPad*
%ADD14C,1.800000*%
G04 #@! TD*
G04 #@! TA.AperFunction,ComponentPad*
%ADD15C,1.600000*%
G04 #@! TD*
G04 #@! TA.AperFunction,ComponentPad*
%ADD16R,1.800000X1.600000*%
G04 #@! TD*
G04 #@! TA.AperFunction,ViaPad*
%ADD17C,0.800000*%
G04 #@! TD*
G04 #@! TA.AperFunction,Conductor*
%ADD18C,0.500000*%
G04 #@! TD*
G04 #@! TA.AperFunction,Conductor*
%ADD19C,0.254000*%
G04 #@! TD*
G04 APERTURE END LIST*
D10*
X63000000Y-75800000D03*
X92400000Y-81000000D03*
D11*
X92400000Y-86000000D03*
D10*
X63000000Y-91200000D03*
D12*
X102000000Y-64390000D03*
X102000000Y-59945000D03*
D13*
X102000000Y-55500000D03*
D12*
X102000000Y-42110000D03*
X102000000Y-46555000D03*
D13*
X102000000Y-51000000D03*
D12*
X102000000Y-37080000D03*
D13*
X102000000Y-32000000D03*
D14*
X74930000Y-55890000D03*
X52070000Y-55890000D03*
X74930000Y-53350000D03*
X52070000Y-53350000D03*
X74930000Y-50810000D03*
X52070000Y-50810000D03*
X74930000Y-48270000D03*
X52070000Y-48270000D03*
X74930000Y-45730000D03*
X52070000Y-45730000D03*
X74930000Y-43190000D03*
X52070000Y-43190000D03*
X74930000Y-40650000D03*
X52070000Y-40650000D03*
X74930000Y-38110000D03*
X52070000Y-38110000D03*
D15*
X92200000Y-71000000D03*
X97280000Y-71000000D03*
X87120000Y-71000000D03*
X79500000Y-63380000D03*
D16*
X79500000Y-71000000D03*
D15*
X97280000Y-63380000D03*
X92200000Y-63380000D03*
X87120000Y-63380000D03*
X92200000Y-60000000D03*
X97280000Y-60000000D03*
X87120000Y-60000000D03*
X79500000Y-52380000D03*
D16*
X79500000Y-60000000D03*
D15*
X97280000Y-52380000D03*
X92200000Y-52380000D03*
X87120000Y-52380000D03*
X92200000Y-49000000D03*
X97280000Y-49000000D03*
X87120000Y-49000000D03*
X79500000Y-41380000D03*
D16*
X79500000Y-49000000D03*
D15*
X97280000Y-41380000D03*
X92200000Y-41380000D03*
X87120000Y-41380000D03*
X92200000Y-38000000D03*
X97280000Y-38000000D03*
X87120000Y-38000000D03*
X79500000Y-30380000D03*
D16*
X79500000Y-38000000D03*
D15*
X97280000Y-30380000D03*
X92200000Y-30380000D03*
X87120000Y-30380000D03*
D17*
X73723500Y-57658000D03*
X72009000Y-60960000D03*
X76009500Y-60960000D03*
X64800000Y-50000000D03*
X68800000Y-50000000D03*
D18*
X63000000Y-75800000D02*
X73100000Y-75800000D01*
X64800000Y-50000000D02*
X71600000Y-43200000D01*
X71600000Y-43200000D02*
X74920000Y-43200000D01*
X74920000Y-43200000D02*
X74930000Y-43190000D01*
X68800000Y-50000000D02*
X73000000Y-45800000D01*
X73000000Y-45800000D02*
X74860000Y-45800000D01*
X74860000Y-45800000D02*
X74930000Y-45730000D01*
X74930000Y-38110000D02*
X79390000Y-38110000D01*
X79390000Y-38110000D02*
X79500000Y-38000000D01*
X77900000Y-71000000D02*
X77900000Y-60100000D01*
X77900000Y-60100000D02*
X77900000Y-49150000D01*
X79500000Y-60000000D02*
X78000000Y-60000000D01*
X78000000Y-60000000D02*
X77900000Y-60100000D01*
X77900000Y-49150000D02*
X77900000Y-39600000D01*
X79500000Y-49000000D02*
X78050000Y-49000000D01*
X78050000Y-49000000D02*
X77900000Y-49150000D01*
X77900000Y-39600000D02*
X79500000Y-38000000D01*
X73100000Y-75800000D02*
X77900000Y-71000000D01*
X77900000Y-71000000D02*
X79500000Y-71000000D01*
X87120000Y-71000000D02*
X92120000Y-66000000D01*
X92120000Y-66000000D02*
X96500000Y-66000000D01*
X102000000Y-60500000D02*
X102000000Y-60000000D01*
X96500000Y-66000000D02*
X102000000Y-60500000D01*
X97280000Y-52380000D02*
X97280000Y-60000000D01*
X97280000Y-49000000D02*
X97280000Y-52380000D01*
X97280000Y-41380000D02*
X97280000Y-49000000D01*
X97280000Y-38000000D02*
X97280000Y-41380000D01*
X97280000Y-30380000D02*
X97280000Y-38000000D01*
X102000000Y-32000000D02*
X98900000Y-32000000D01*
X98900000Y-32000000D02*
X97280000Y-30380000D01*
X83500000Y-31500000D02*
X83500000Y-41500000D01*
X83500000Y-41500000D02*
X83500000Y-51000000D01*
X87120000Y-41380000D02*
X83620000Y-41380000D01*
X83620000Y-41380000D02*
X83500000Y-41500000D01*
X87120000Y-30380000D02*
X84620000Y-30380000D01*
X83500000Y-51000000D02*
X84880000Y-52380000D01*
X84620000Y-30380000D02*
X83500000Y-31500000D01*
X84880000Y-52380000D02*
X87120000Y-52380000D01*
G36*
X73409646Y-38349477D02*
G01*
X73411343Y-38360013D01*
X73471731Y-38602218D01*
X73475179Y-38612317D01*
X73575512Y-38840884D01*
X73580613Y-38850258D01*
X73718023Y-39058650D01*
X73724630Y-39067031D01*
X73895187Y-39249294D01*
X73903112Y-39256442D01*
X74066929Y-39380786D01*
X74008851Y-39423137D01*
X73999847Y-39538828D01*
X74877809Y-40416790D01*
X74982191Y-40416790D01*
X75863082Y-39535899D01*
X75849080Y-39414885D01*
X75794266Y-39380899D01*
X75820506Y-39365319D01*
X75829189Y-39359114D01*
X76019283Y-39197331D01*
X76026796Y-39189752D01*
X76186914Y-38998254D01*
X76188495Y-38996000D01*
X77251009Y-38996000D01*
X77231747Y-39015261D01*
X77225874Y-39022036D01*
X77212310Y-39040134D01*
X77157873Y-39101772D01*
X77148016Y-39116778D01*
X77136524Y-39141255D01*
X77120306Y-39162896D01*
X77111684Y-39178643D01*
X77082817Y-39255648D01*
X77047784Y-39330265D01*
X77042475Y-39347819D01*
X77038638Y-39373493D01*
X77028964Y-39399299D01*
X77025109Y-39416833D01*
X77018134Y-39510693D01*
X77014694Y-39533710D01*
X77014001Y-39543034D01*
X77014001Y-39566306D01*
X77007644Y-39651836D01*
X77008865Y-39669748D01*
X77014001Y-39693808D01*
X77014000Y-49116319D01*
X77007644Y-49201836D01*
X77008865Y-49219748D01*
X77014001Y-49243808D01*
X77014000Y-60066319D01*
X77007644Y-60151836D01*
X77008865Y-60169748D01*
X77014001Y-60193808D01*
X77014000Y-70633008D01*
X72733009Y-74914000D01*
X64550790Y-74914000D01*
X64528067Y-74869405D01*
X64522894Y-74860963D01*
X64363677Y-74641820D01*
X64357247Y-74634291D01*
X64165709Y-74442753D01*
X64158180Y-74436323D01*
X63939037Y-74277106D01*
X63930595Y-74271933D01*
X63689243Y-74148958D01*
X63680095Y-74145169D01*
X63422477Y-74061463D01*
X63412849Y-74059152D01*
X63145308Y-74016778D01*
X63135437Y-74016001D01*
X62864563Y-74016001D01*
X62854692Y-74016778D01*
X62587151Y-74059152D01*
X62577523Y-74061463D01*
X62319905Y-74145169D01*
X62310757Y-74148958D01*
X62069405Y-74271933D01*
X62060963Y-74277106D01*
X61841820Y-74436323D01*
X61834291Y-74442753D01*
X61642753Y-74634291D01*
X61636323Y-74641820D01*
X61477106Y-74860963D01*
X61471933Y-74869405D01*
X61348958Y-75110757D01*
X61345169Y-75119905D01*
X61261463Y-75377523D01*
X61259152Y-75387151D01*
X61216778Y-75654692D01*
X61216001Y-75664563D01*
X61216001Y-75935437D01*
X61216778Y-75945308D01*
X61259152Y-76212849D01*
X61261463Y-76222477D01*
X61345169Y-76480095D01*
X61348958Y-76489243D01*
X61471933Y-76730595D01*
X61477106Y-76739037D01*
X61636323Y-76958180D01*
X61642753Y-76965709D01*
X61834291Y-77157247D01*
X61841820Y-77163677D01*
X62060963Y-77322894D01*
X62069405Y-77328067D01*
X62310757Y-77451042D01*
X62319905Y-77454831D01*
X62577523Y-77538537D01*
X62587151Y-77540848D01*
X62854692Y-77583222D01*
X62864563Y-77583999D01*
X63135437Y-77583999D01*
X63145308Y-77583222D01*
X63412849Y-77540848D01*
X63422477Y-77538537D01*
X63680095Y-77454831D01*
X63689243Y-77451042D01*
X63930595Y-77328067D01*
X63939037Y-77322894D01*
X64158180Y-77163677D01*
X64165709Y-77157247D01*
X64357247Y-76965709D01*
X64363677Y-76958180D01*
X64522894Y-76739037D01*
X64528067Y-76730595D01*
X64550790Y-76686000D01*
X73000742Y-76686000D01*
X73019370Y-76690215D01*
X73037265Y-76691655D01*
X73128413Y-76686000D01*
X73159053Y-76686000D01*
X73167995Y-76685363D01*
X73190394Y-76682155D01*
X73272463Y-76677063D01*
X73290043Y-76673423D01*
X73315476Y-76664242D01*
X73342248Y-76660408D01*
X73359479Y-76655369D01*
X73434353Y-76621327D01*
X73511877Y-76593340D01*
X73528044Y-76584680D01*
X73548908Y-76569241D01*
X73573998Y-76557834D01*
X73589123Y-76548161D01*
X73660428Y-76486720D01*
X73679131Y-76472881D01*
X73686215Y-76466777D01*
X73702659Y-76450332D01*
X73767645Y-76394337D01*
X73779447Y-76380808D01*
X73792828Y-76360163D01*
X78039928Y-72113064D01*
X78047880Y-72128339D01*
X78178990Y-72284590D01*
X78195879Y-72298761D01*
X78370120Y-72399359D01*
X78390837Y-72406900D01*
X78583538Y-72440878D01*
X78594499Y-72441837D01*
X80408258Y-72441837D01*
X80424634Y-72439681D01*
X80703859Y-72364863D01*
X80728339Y-72352120D01*
X80874000Y-72229896D01*
X80874000Y-93252191D01*
X80947809Y-93326000D01*
X104384143Y-93326000D01*
X104388170Y-93372491D01*
X104389576Y-93381345D01*
X104395898Y-93408513D01*
X104397956Y-93436532D01*
X104399331Y-93445786D01*
X104401781Y-93456651D01*
X104401865Y-93457022D01*
X104466711Y-93736786D01*
X104469351Y-93745353D01*
X104479438Y-93771360D01*
X104485423Y-93798808D01*
X104488087Y-93807772D01*
X104492042Y-93818184D01*
X104492179Y-93818542D01*
X104595798Y-94086379D01*
X104599619Y-94094490D01*
X104613270Y-94118816D01*
X104623062Y-94145147D01*
X104626966Y-94153653D01*
X104632350Y-94163403D01*
X104632533Y-94163733D01*
X104772855Y-94414295D01*
X104777780Y-94421786D01*
X104794724Y-94443949D01*
X104808128Y-94468635D01*
X104813187Y-94476500D01*
X104819890Y-94485395D01*
X104820122Y-94485701D01*
X104994351Y-94713994D01*
X105000282Y-94720716D01*
X105020177Y-94740266D01*
X105036927Y-94762821D01*
X105043046Y-94769897D01*
X105050936Y-94777758D01*
X105051206Y-94778026D01*
X105255863Y-94979492D01*
X105262682Y-94985311D01*
X105285130Y-95001861D01*
X105304896Y-95021835D01*
X105311955Y-95027982D01*
X105320875Y-95034652D01*
X105321176Y-95034876D01*
X105552176Y-95205496D01*
X105559748Y-95210296D01*
X105584305Y-95223519D01*
X105606686Y-95240507D01*
X105614542Y-95245598D01*
X105624312Y-95250945D01*
X105624641Y-95251124D01*
X105877376Y-95387492D01*
X105885548Y-95391178D01*
X105911727Y-95400810D01*
X105936276Y-95414474D01*
X105944760Y-95418403D01*
X105955185Y-95422321D01*
X105955546Y-95422456D01*
X106224979Y-95521854D01*
X106233589Y-95524351D01*
X106260866Y-95530199D01*
X106287089Y-95540265D01*
X106296044Y-95542960D01*
X106306919Y-95545371D01*
X106307292Y-95545452D01*
X106588042Y-95605896D01*
X106596918Y-95607155D01*
X106624741Y-95609101D01*
X106652131Y-95615374D01*
X106661386Y-95616781D01*
X106672491Y-95617634D01*
X106672864Y-95617661D01*
X106959324Y-95637944D01*
X106968289Y-95637940D01*
X107023266Y-95634000D01*
X110735119Y-95634000D01*
X110747806Y-95636616D01*
X110757084Y-95637821D01*
X110768206Y-95638432D01*
X110768585Y-95638451D01*
X111147405Y-95656979D01*
X111491474Y-95707787D01*
X111828958Y-95791931D01*
X112156613Y-95908604D01*
X112471321Y-96056694D01*
X112770076Y-96234787D01*
X113050040Y-96441195D01*
X113308499Y-96673911D01*
X113543041Y-96930769D01*
X113751383Y-97209267D01*
X113931561Y-97506774D01*
X114081842Y-97820437D01*
X114200804Y-98147281D01*
X114287300Y-98484159D01*
X114340509Y-98827876D01*
X114360736Y-99189659D01*
X114360795Y-99206705D01*
X114361463Y-99215646D01*
X114366000Y-99246559D01*
X114366001Y-105735114D01*
X114363384Y-105747806D01*
X114362179Y-105757084D01*
X114361568Y-105768206D01*
X114361549Y-105768585D01*
X114343021Y-106147405D01*
X114292213Y-106491474D01*
X114208069Y-106828958D01*
X114091396Y-107156613D01*
X113943306Y-107471321D01*
X113765213Y-107770076D01*
X113558809Y-108050034D01*
X113326074Y-108308513D01*
X113069242Y-108543033D01*
X112790740Y-108751379D01*
X112493233Y-108931557D01*
X112179557Y-109081844D01*
X111852726Y-109200802D01*
X111515834Y-109287300D01*
X111172132Y-109340509D01*
X110810341Y-109360736D01*
X110793295Y-109360795D01*
X110784354Y-109361463D01*
X110753441Y-109366000D01*
X44264881Y-109366000D01*
X44252194Y-109363384D01*
X44242916Y-109362179D01*
X44231794Y-109361568D01*
X44231415Y-109361549D01*
X43852595Y-109343021D01*
X43508526Y-109292213D01*
X43171042Y-109208069D01*
X42843387Y-109091396D01*
X42528679Y-108943306D01*
X42229924Y-108765213D01*
X41949966Y-108558809D01*
X41691487Y-108326074D01*
X41456967Y-108069242D01*
X41248621Y-107790740D01*
X41068443Y-107493233D01*
X40918156Y-107179557D01*
X40799198Y-106852726D01*
X40712700Y-106515834D01*
X40659491Y-106172132D01*
X40639264Y-105810341D01*
X40639205Y-105793295D01*
X40638537Y-105784354D01*
X40634000Y-105753441D01*
X40634000Y-102518419D01*
X42361002Y-102518419D01*
X42361460Y-102529548D01*
X42361477Y-102529924D01*
X42368354Y-102675750D01*
X42369411Y-102684652D01*
X42373928Y-102708219D01*
X42374456Y-102732410D01*
X42375353Y-102741719D01*
X42377239Y-102752695D01*
X42377305Y-102753072D01*
X42421233Y-102999680D01*
X42423428Y-103008373D01*
X42434429Y-103041732D01*
X42440957Y-103076446D01*
X42443362Y-103085483D01*
X42447015Y-103096005D01*
X42447142Y-103096366D01*
X42530757Y-103332488D01*
X42534343Y-103340704D01*
X42550643Y-103371818D01*
X42562755Y-103405004D01*
X42566605Y-103413531D01*
X42571929Y-103423313D01*
X42572111Y-103423645D01*
X42693167Y-103642938D01*
X42698046Y-103650458D01*
X42719209Y-103678491D01*
X42736576Y-103709249D01*
X42741765Y-103717030D01*
X42748614Y-103725812D01*
X42748850Y-103726113D01*
X42904098Y-103922692D01*
X42910141Y-103929315D01*
X42935593Y-103953509D01*
X42957758Y-103981028D01*
X42964149Y-103987857D01*
X42972341Y-103995403D01*
X42972623Y-103995661D01*
X43157893Y-104164243D01*
X43164937Y-104169790D01*
X43194002Y-104189506D01*
X43220356Y-104213026D01*
X43227774Y-104218719D01*
X43237089Y-104224825D01*
X43237411Y-104225035D01*
X43447728Y-104361095D01*
X43455582Y-104365417D01*
X43487477Y-104380121D01*
X43517319Y-104399023D01*
X43525567Y-104403427D01*
X43535753Y-104407930D01*
X43536106Y-104408085D01*
X43765820Y-104507968D01*
X43774275Y-104510950D01*
X43808149Y-104520248D01*
X43840678Y-104534023D01*
X43849542Y-104537022D01*
X43860328Y-104539801D01*
X43860694Y-104539894D01*
X44103635Y-104600916D01*
X44112463Y-104602476D01*
X44147396Y-104606117D01*
X44181741Y-104614394D01*
X44190978Y-104615906D01*
X44202073Y-104616885D01*
X44202447Y-104616917D01*
X44452090Y-104637442D01*
X44461054Y-104637539D01*
X44519773Y-104634000D01*
X58965555Y-104634000D01*
X59009065Y-104638688D01*
X59018420Y-104638998D01*
X59029548Y-104638540D01*
X59029924Y-104638523D01*
X59175750Y-104631646D01*
X59184652Y-104630589D01*
X59208219Y-104626072D01*
X59232410Y-104625544D01*
X59241719Y-104624647D01*
X59252695Y-104622761D01*
X59253072Y-104622695D01*
X59499680Y-104578767D01*
X59508373Y-104576572D01*
X59541732Y-104565571D01*
X59576446Y-104559043D01*
X59585483Y-104556638D01*
X59596005Y-104552985D01*
X59596366Y-104552858D01*
X59832488Y-104469243D01*
X59840704Y-104465657D01*
X59871818Y-104449357D01*
X59905004Y-104437245D01*
X59913531Y-104433395D01*
X59923313Y-104428071D01*
X59923645Y-104427889D01*
X60142938Y-104306833D01*
X60150458Y-104301954D01*
X60178491Y-104280791D01*
X60209249Y-104263424D01*
X60217030Y-104258235D01*
X60225812Y-104251386D01*
X60226113Y-104251150D01*
X60422692Y-104095902D01*
X60429315Y-104089859D01*
X60453509Y-104064407D01*
X60481028Y-104042242D01*
X60487857Y-104035851D01*
X60495403Y-104027659D01*
X60495661Y-104027377D01*
X60664243Y-103842107D01*
X60669790Y-103835063D01*
X60689506Y-103805998D01*
X60713026Y-103779644D01*
X60718719Y-103772226D01*
X60724825Y-103762911D01*
X60725035Y-103762589D01*
X60861095Y-103552272D01*
X60865417Y-103544418D01*
X60880121Y-103512523D01*
X60899023Y-103482681D01*
X60903427Y-103474433D01*
X60907930Y-103464247D01*
X60908085Y-103463894D01*
X61007968Y-103234180D01*
X61010950Y-103225725D01*
X61020248Y-103191851D01*
X61034023Y-103159322D01*
X61037022Y-103150458D01*
X61039801Y-103139672D01*
X61039894Y-103139306D01*
X61100916Y-102896365D01*
X61102476Y-102887537D01*
X61106117Y-102852604D01*
X61114394Y-102818259D01*
X61115906Y-102809022D01*
X61116885Y-102797927D01*
X61116917Y-102797553D01*
X61137442Y-102547910D01*
X61137539Y-102538945D01*
X61136303Y-102518419D01*
X93861002Y-102518419D01*
X93861460Y-102529548D01*
X93861477Y-102529924D01*
X93868354Y-102675750D01*
X93869411Y-102684652D01*
X93873928Y-102708219D01*
X93874456Y-102732410D01*
X93875353Y-102741719D01*
X93877239Y-102752695D01*
X93877305Y-102753072D01*
X93921233Y-102999680D01*
X93923428Y-103008373D01*
X93934429Y-103041732D01*
X93940957Y-103076446D01*
X93943362Y-103085483D01*
X93947015Y-103096005D01*
X93947142Y-103096366D01*
X94030757Y-103332488D01*
X94034343Y-103340704D01*
X94050643Y-103371818D01*
X94062755Y-103405004D01*
X94066605Y-103413531D01*
X94071929Y-103423313D01*
X94072111Y-103423645D01*
X94193167Y-103642938D01*
X94198046Y-103650458D01*
X94219209Y-103678491D01*
X94236576Y-103709249D01*
X94241765Y-103717030D01*
X94248614Y-103725812D01*
X94248850Y-103726113D01*
X94404098Y-103922692D01*
X94410141Y-103929315D01*
X94435593Y-103953509D01*
X94457758Y-103981028D01*
X94464149Y-103987857D01*
X94472341Y-103995403D01*
X94472623Y-103995661D01*
X94657893Y-104164243D01*
X94664937Y-104169790D01*
X94694002Y-104189506D01*
X94720356Y-104213026D01*
X94727774Y-104218719D01*
X94737089Y-104224825D01*
X94737411Y-104225035D01*
X94947728Y-104361095D01*
X94955582Y-104365417D01*
X94987477Y-104380121D01*
X95017319Y-104399023D01*
X95025567Y-104403427D01*
X95035753Y-104407930D01*
X95036106Y-104408085D01*
X95265820Y-104507968D01*
X95274275Y-104510950D01*
X95308149Y-104520248D01*
X95340678Y-104534023D01*
X95349542Y-104537022D01*
X95360328Y-104539801D01*
X95360694Y-104539894D01*
X95603635Y-104600916D01*
X95612463Y-104602476D01*
X95647396Y-104606117D01*
X95681741Y-104614394D01*
X95690978Y-104615906D01*
X95702073Y-104616885D01*
X95702447Y-104616917D01*
X95952090Y-104637442D01*
X95961054Y-104637539D01*
X96019773Y-104634000D01*
X110465555Y-104634000D01*
X110509065Y-104638688D01*
X110518420Y-104638998D01*
X110529548Y-104638540D01*
X110529924Y-104638523D01*
X110675750Y-104631646D01*
X110684652Y-104630589D01*
X110708219Y-104626072D01*
X110732410Y-104625544D01*
X110741719Y-104624647D01*
X110752695Y-104622761D01*
X110753072Y-104622695D01*
X110999680Y-104578767D01*
X111008373Y-104576572D01*
X111041732Y-104565571D01*
X111076446Y-104559043D01*
X111085483Y-104556638D01*
X111096005Y-104552985D01*
X111096366Y-104552858D01*
X111332488Y-104469243D01*
X111340704Y-104465657D01*
X111371818Y-104449357D01*
X111405004Y-104437245D01*
X111413531Y-104433395D01*
X111423313Y-104428071D01*
X111423645Y-104427889D01*
X111642938Y-104306833D01*
X111650458Y-104301954D01*
X111678491Y-104280791D01*
X111709249Y-104263424D01*
X111717030Y-104258235D01*
X111725812Y-104251386D01*
X111726113Y-104251150D01*
X111922692Y-104095902D01*
X111929315Y-104089859D01*
X111953509Y-104064407D01*
X111981028Y-104042242D01*
X111987857Y-104035851D01*
X111995403Y-104027659D01*
X111995661Y-104027377D01*
X112164243Y-103842107D01*
X112169790Y-103835063D01*
X112189506Y-103805998D01*
X112213026Y-103779644D01*
X112218719Y-103772226D01*
X112224825Y-103762911D01*
X112225035Y-103762589D01*
X112361095Y-103552272D01*
X112365417Y-103544418D01*
X112380121Y-103512523D01*
X112399023Y-103482681D01*
X112403427Y-103474433D01*
X112407930Y-103464247D01*
X112408085Y-103463894D01*
X112507968Y-103234180D01*
X112510950Y-103225725D01*
X112520248Y-103191851D01*
X112534023Y-103159322D01*
X112537022Y-103150458D01*
X112539801Y-103139672D01*
X112539894Y-103139306D01*
X112600916Y-102896365D01*
X112602476Y-102887537D01*
X112606117Y-102852604D01*
X112614394Y-102818259D01*
X112615906Y-102809022D01*
X112616885Y-102797927D01*
X112616917Y-102797553D01*
X112637442Y-102547910D01*
X112637539Y-102538945D01*
X112636096Y-102514995D01*
X112638688Y-102490936D01*
X112638998Y-102481581D01*
X112638540Y-102470452D01*
X112638523Y-102470076D01*
X112631646Y-102324249D01*
X112630589Y-102315348D01*
X112626072Y-102291781D01*
X112625544Y-102267591D01*
X112624648Y-102258283D01*
X112622761Y-102247306D01*
X112622695Y-102246928D01*
X112578767Y-102000320D01*
X112576572Y-101991628D01*
X112565570Y-101958265D01*
X112559043Y-101923554D01*
X112556638Y-101914517D01*
X112552985Y-101903996D01*
X112552858Y-101903635D01*
X112469243Y-101667512D01*
X112465657Y-101659295D01*
X112449357Y-101628183D01*
X112437246Y-101594997D01*
X112433395Y-101586469D01*
X112428071Y-101576687D01*
X112427889Y-101576355D01*
X112306833Y-101357063D01*
X112301953Y-101349542D01*
X112280793Y-101321511D01*
X112263425Y-101290752D01*
X112258236Y-101282971D01*
X112251386Y-101274188D01*
X112251150Y-101273887D01*
X112095902Y-101077308D01*
X112089859Y-101070685D01*
X112064407Y-101046491D01*
X112042242Y-101018972D01*
X112035851Y-101012143D01*
X112027659Y-101004597D01*
X112027377Y-101004339D01*
X111842107Y-100835757D01*
X111835063Y-100830210D01*
X111805998Y-100810494D01*
X111779644Y-100786974D01*
X111772226Y-100781281D01*
X111762911Y-100775175D01*
X111762589Y-100774965D01*
X111552272Y-100638905D01*
X111544418Y-100634583D01*
X111512523Y-100619879D01*
X111482680Y-100600976D01*
X111474427Y-100596570D01*
X111464240Y-100592067D01*
X111463891Y-100591915D01*
X111234180Y-100492032D01*
X111225725Y-100489050D01*
X111191849Y-100479751D01*
X111159326Y-100465980D01*
X111150472Y-100462983D01*
X111139687Y-100460203D01*
X111139310Y-100460107D01*
X110896365Y-100399084D01*
X110887538Y-100397524D01*
X110852604Y-100393883D01*
X110818260Y-100385606D01*
X110809023Y-100384094D01*
X110797928Y-100383115D01*
X110797554Y-100383083D01*
X110547910Y-100362558D01*
X110538946Y-100362461D01*
X110480227Y-100366000D01*
X96034445Y-100366000D01*
X95990935Y-100361312D01*
X95981580Y-100361002D01*
X95970452Y-100361460D01*
X95970076Y-100361477D01*
X95824249Y-100368354D01*
X95815348Y-100369411D01*
X95791781Y-100373928D01*
X95767591Y-100374456D01*
X95758283Y-100375352D01*
X95747306Y-100377239D01*
X95746928Y-100377305D01*
X95500320Y-100421233D01*
X95491628Y-100423428D01*
X95458265Y-100434430D01*
X95423554Y-100440957D01*
X95414517Y-100443362D01*
X95403996Y-100447015D01*
X95403635Y-100447142D01*
X95167512Y-100530757D01*
X95159295Y-100534343D01*
X95128183Y-100550643D01*
X95094997Y-100562754D01*
X95086469Y-100566605D01*
X95076687Y-100571929D01*
X95076355Y-100572111D01*
X94857063Y-100693167D01*
X94849542Y-100698047D01*
X94821511Y-100719207D01*
X94790752Y-100736575D01*
X94782971Y-100741764D01*
X94774188Y-100748614D01*
X94773887Y-100748850D01*
X94577308Y-100904098D01*
X94570685Y-100910141D01*
X94546491Y-100935593D01*
X94518972Y-100957758D01*
X94512143Y-100964149D01*
X94504597Y-100972341D01*
X94504339Y-100972623D01*
X94335757Y-101157893D01*
X94330210Y-101164937D01*
X94310494Y-101194002D01*
X94286974Y-101220356D01*
X94281281Y-101227774D01*
X94275175Y-101237089D01*
X94274965Y-101237411D01*
X94138905Y-101447728D01*
X94134583Y-101455582D01*
X94119879Y-101487477D01*
X94100976Y-101517320D01*
X94096570Y-101525573D01*
X94092067Y-101535760D01*
X94091915Y-101536109D01*
X93992032Y-101765820D01*
X93989050Y-101774275D01*
X93979751Y-101808151D01*
X93965980Y-101840674D01*
X93962983Y-101849528D01*
X93960203Y-101860313D01*
X93960107Y-101860690D01*
X93899084Y-102103635D01*
X93897524Y-102112462D01*
X93893883Y-102147396D01*
X93885606Y-102181740D01*
X93884094Y-102190977D01*
X93883115Y-102202072D01*
X93883083Y-102202446D01*
X93862558Y-102452090D01*
X93862461Y-102461055D01*
X93863904Y-102485005D01*
X93861312Y-102509064D01*
X93861002Y-102518419D01*
X61136303Y-102518419D01*
X61136096Y-102514995D01*
X61138688Y-102490936D01*
X61138998Y-102481581D01*
X61138540Y-102470452D01*
X61138523Y-102470076D01*
X61131646Y-102324249D01*
X61130589Y-102315348D01*
X61126072Y-102291781D01*
X61125544Y-102267591D01*
X61124648Y-102258283D01*
X61122761Y-102247306D01*
X61122695Y-102246928D01*
X61078767Y-102000320D01*
X61076572Y-101991628D01*
X61065570Y-101958265D01*
X61059043Y-101923554D01*
X61056638Y-101914517D01*
X61052985Y-101903996D01*
X61052858Y-101903635D01*
X60969243Y-101667512D01*
X60965657Y-101659295D01*
X60949357Y-101628183D01*
X60937246Y-101594997D01*
X60933395Y-101586469D01*
X60928071Y-101576687D01*
X60927889Y-101576355D01*
X60806833Y-101357063D01*
X60801953Y-101349542D01*
X60780793Y-101321511D01*
X60763425Y-101290752D01*
X60758236Y-101282971D01*
X60751386Y-101274188D01*
X60751150Y-101273887D01*
X60595902Y-101077308D01*
X60589859Y-101070685D01*
X60564407Y-101046491D01*
X60542242Y-101018972D01*
X60535851Y-101012143D01*
X60527659Y-101004597D01*
X60527377Y-101004339D01*
X60342107Y-100835757D01*
X60335063Y-100830210D01*
X60305998Y-100810494D01*
X60279644Y-100786974D01*
X60272226Y-100781281D01*
X60262911Y-100775175D01*
X60262589Y-100774965D01*
X60052272Y-100638905D01*
X60044418Y-100634583D01*
X60012523Y-100619879D01*
X59982680Y-100600976D01*
X59974427Y-100596570D01*
X59964240Y-100592067D01*
X59963891Y-100591915D01*
X59734180Y-100492032D01*
X59725725Y-100489050D01*
X59691849Y-100479751D01*
X59659326Y-100465980D01*
X59650472Y-100462983D01*
X59639687Y-100460203D01*
X59639310Y-100460107D01*
X59396365Y-100399084D01*
X59387538Y-100397524D01*
X59352604Y-100393883D01*
X59318260Y-100385606D01*
X59309023Y-100384094D01*
X59297928Y-100383115D01*
X59297554Y-100383083D01*
X59047910Y-100362558D01*
X59038946Y-100362461D01*
X58980227Y-100366000D01*
X44534445Y-100366000D01*
X44490935Y-100361312D01*
X44481580Y-100361002D01*
X44470452Y-100361460D01*
X44470076Y-100361477D01*
X44324249Y-100368354D01*
X44315348Y-100369411D01*
X44291781Y-100373928D01*
X44267591Y-100374456D01*
X44258283Y-100375352D01*
X44247306Y-100377239D01*
X44246928Y-100377305D01*
X44000320Y-100421233D01*
X43991628Y-100423428D01*
X43958265Y-100434430D01*
X43923554Y-100440957D01*
X43914517Y-100443362D01*
X43903996Y-100447015D01*
X43903635Y-100447142D01*
X43667512Y-100530757D01*
X43659295Y-100534343D01*
X43628183Y-100550643D01*
X43594997Y-100562754D01*
X43586469Y-100566605D01*
X43576687Y-100571929D01*
X43576355Y-100572111D01*
X43357063Y-100693167D01*
X43349542Y-100698047D01*
X43321511Y-100719207D01*
X43290752Y-100736575D01*
X43282971Y-100741764D01*
X43274188Y-100748614D01*
X43273887Y-100748850D01*
X43077308Y-100904098D01*
X43070685Y-100910141D01*
X43046491Y-100935593D01*
X43018972Y-100957758D01*
X43012143Y-100964149D01*
X43004597Y-100972341D01*
X43004339Y-100972623D01*
X42835757Y-101157893D01*
X42830210Y-101164937D01*
X42810494Y-101194002D01*
X42786974Y-101220356D01*
X42781281Y-101227774D01*
X42775175Y-101237089D01*
X42774965Y-101237411D01*
X42638905Y-101447728D01*
X42634583Y-101455582D01*
X42619879Y-101487477D01*
X42600976Y-101517320D01*
X42596570Y-101525573D01*
X42592067Y-101535760D01*
X42591915Y-101536109D01*
X42492032Y-101765820D01*
X42489050Y-101774275D01*
X42479751Y-101808151D01*
X42465980Y-101840674D01*
X42462983Y-101849528D01*
X42460203Y-101860313D01*
X42460107Y-101860690D01*
X42399084Y-102103635D01*
X42397524Y-102112462D01*
X42393883Y-102147396D01*
X42385606Y-102181740D01*
X42384094Y-102190977D01*
X42383115Y-102202072D01*
X42383083Y-102202446D01*
X42362558Y-102452090D01*
X42362461Y-102461055D01*
X42363904Y-102485005D01*
X42361312Y-102509064D01*
X42361002Y-102518419D01*
X40634000Y-102518419D01*
X40634000Y-99264881D01*
X40636616Y-99252194D01*
X40637821Y-99242916D01*
X40638432Y-99231794D01*
X40638451Y-99231415D01*
X40656979Y-98852595D01*
X40707787Y-98508526D01*
X40791931Y-98171042D01*
X40908604Y-97843387D01*
X41056694Y-97528679D01*
X41234787Y-97229924D01*
X41441195Y-96949960D01*
X41673911Y-96691501D01*
X41930769Y-96456959D01*
X42209267Y-96248617D01*
X42506774Y-96068439D01*
X42820437Y-95918158D01*
X43147281Y-95799196D01*
X43484159Y-95712700D01*
X43827876Y-95659491D01*
X44189659Y-95639264D01*
X44206705Y-95639205D01*
X44215646Y-95638537D01*
X44246559Y-95634000D01*
X47953165Y-95634000D01*
X47983985Y-95638550D01*
X47993311Y-95639227D01*
X48004448Y-95639207D01*
X48004833Y-95639206D01*
X48040923Y-95638922D01*
X48049859Y-95638215D01*
X48057571Y-95637049D01*
X48065544Y-95637592D01*
X48074895Y-95637535D01*
X48085997Y-95636642D01*
X48086379Y-95636610D01*
X48372491Y-95611830D01*
X48381345Y-95610424D01*
X48408513Y-95604102D01*
X48436532Y-95602044D01*
X48445786Y-95600669D01*
X48456651Y-95598219D01*
X48457022Y-95598135D01*
X48736786Y-95533289D01*
X48745353Y-95530649D01*
X48771360Y-95520562D01*
X48798808Y-95514577D01*
X48807772Y-95511913D01*
X48818184Y-95507958D01*
X48818542Y-95507821D01*
X49086379Y-95404202D01*
X49094490Y-95400381D01*
X49118816Y-95386730D01*
X49145147Y-95376938D01*
X49153653Y-95373034D01*
X49163403Y-95367650D01*
X49163733Y-95367467D01*
X49414295Y-95227145D01*
X49421786Y-95222220D01*
X49443949Y-95205276D01*
X49468635Y-95191872D01*
X49476500Y-95186813D01*
X49485395Y-95180110D01*
X49485701Y-95179878D01*
X49713994Y-95005649D01*
X49720716Y-94999718D01*
X49740266Y-94979823D01*
X49762821Y-94963073D01*
X49769897Y-94956954D01*
X49777758Y-94949064D01*
X49778026Y-94948794D01*
X49979492Y-94744137D01*
X49985311Y-94737318D01*
X50001861Y-94714870D01*
X50021835Y-94695104D01*
X50027982Y-94688045D01*
X50034652Y-94679125D01*
X50034876Y-94678824D01*
X50205496Y-94447824D01*
X50210296Y-94440252D01*
X50223519Y-94415695D01*
X50240507Y-94393314D01*
X50245598Y-94385458D01*
X50250945Y-94375688D01*
X50251124Y-94375359D01*
X50387492Y-94122624D01*
X50391178Y-94114452D01*
X50400810Y-94088273D01*
X50414474Y-94063724D01*
X50418403Y-94055240D01*
X50422321Y-94044815D01*
X50422456Y-94044454D01*
X50521854Y-93775021D01*
X50524351Y-93766411D01*
X50530199Y-93739134D01*
X50540265Y-93712911D01*
X50542960Y-93703956D01*
X50545371Y-93693081D01*
X50545452Y-93692708D01*
X50605896Y-93411958D01*
X50607155Y-93403082D01*
X50609101Y-93375259D01*
X50615374Y-93347869D01*
X50616781Y-93338614D01*
X50617634Y-93327509D01*
X50617661Y-93327136D01*
X50637944Y-93040676D01*
X50637940Y-93031711D01*
X50634000Y-92976734D01*
X50634000Y-92490133D01*
X61890886Y-92490133D01*
X61900001Y-92605949D01*
X62060963Y-92722894D01*
X62069405Y-92728067D01*
X62310757Y-92851042D01*
X62319905Y-92854831D01*
X62577523Y-92938537D01*
X62587151Y-92940848D01*
X62854692Y-92983222D01*
X62864563Y-92983999D01*
X63135437Y-92983999D01*
X63145308Y-92983222D01*
X63412849Y-92940848D01*
X63422477Y-92938537D01*
X63680095Y-92854831D01*
X63689243Y-92851042D01*
X63930595Y-92728067D01*
X63939037Y-92722894D01*
X64099999Y-92605949D01*
X64109114Y-92490133D01*
X63052191Y-91433210D01*
X62947809Y-91433210D01*
X61890886Y-92490133D01*
X50634000Y-92490133D01*
X50634000Y-91064563D01*
X61216001Y-91064563D01*
X61216001Y-91335437D01*
X61216778Y-91345308D01*
X61259152Y-91612849D01*
X61261463Y-91622477D01*
X61345169Y-91880095D01*
X61348958Y-91889243D01*
X61471933Y-92130595D01*
X61477106Y-92139037D01*
X61594051Y-92299999D01*
X61709867Y-92309114D01*
X62766790Y-91252191D01*
X62766790Y-91147809D01*
X63233210Y-91147809D01*
X63233210Y-91252191D01*
X64290133Y-92309114D01*
X64405949Y-92299999D01*
X64522894Y-92139037D01*
X64528067Y-92130595D01*
X64651042Y-91889243D01*
X64654831Y-91880095D01*
X64738537Y-91622477D01*
X64740848Y-91612849D01*
X64783222Y-91345308D01*
X64783999Y-91335437D01*
X64783999Y-91064563D01*
X64783222Y-91054692D01*
X64740848Y-90787151D01*
X64738537Y-90777523D01*
X64654831Y-90519905D01*
X64651042Y-90510757D01*
X64528067Y-90269405D01*
X64522894Y-90260963D01*
X64405949Y-90100001D01*
X64290133Y-90090886D01*
X63233210Y-91147809D01*
X62766790Y-91147809D01*
X61709867Y-90090886D01*
X61594051Y-90100001D01*
X61477106Y-90260963D01*
X61471933Y-90269405D01*
X61348958Y-90510757D01*
X61345169Y-90519905D01*
X61261463Y-90777523D01*
X61259152Y-90787151D01*
X61216778Y-91054692D01*
X61216001Y-91064563D01*
X50634000Y-91064563D01*
X50634000Y-89909867D01*
X61890886Y-89909867D01*
X62947809Y-90966790D01*
X63052191Y-90966790D01*
X64109114Y-89909867D01*
X64099999Y-89794051D01*
X63939037Y-89677106D01*
X63930595Y-89671933D01*
X63689243Y-89548958D01*
X63680095Y-89545169D01*
X63422477Y-89461463D01*
X63412849Y-89459152D01*
X63145308Y-89416778D01*
X63135437Y-89416001D01*
X62864563Y-89416001D01*
X62854692Y-89416778D01*
X62587151Y-89459152D01*
X62577523Y-89461463D01*
X62319905Y-89545169D01*
X62310757Y-89548958D01*
X62069405Y-89671933D01*
X62060963Y-89677106D01*
X61900001Y-89794051D01*
X61890886Y-89909867D01*
X50634000Y-89909867D01*
X50634000Y-58041258D01*
X73330703Y-58165284D01*
X73405000Y-58091393D01*
X73405000Y-56067687D01*
X73409646Y-56129477D01*
X73411343Y-56140013D01*
X73471731Y-56382218D01*
X73475179Y-56392317D01*
X73575512Y-56620884D01*
X73580613Y-56630258D01*
X73718023Y-56838650D01*
X73724630Y-56847031D01*
X73895187Y-57029294D01*
X73903112Y-57036442D01*
X74101941Y-57187361D01*
X74110957Y-57193071D01*
X74332371Y-57308332D01*
X74342220Y-57312442D01*
X74579889Y-57388749D01*
X74590290Y-57391140D01*
X74837417Y-57426312D01*
X74848072Y-57426917D01*
X75097593Y-57419948D01*
X75108198Y-57418749D01*
X75352977Y-57369837D01*
X75363228Y-57366868D01*
X75596267Y-57277413D01*
X75605871Y-57272760D01*
X75820506Y-57145319D01*
X75829188Y-57139114D01*
X76019283Y-56977331D01*
X76026796Y-56969752D01*
X76186914Y-56778254D01*
X76193042Y-56769517D01*
X76318606Y-56553779D01*
X76323175Y-56544134D01*
X76410593Y-56310323D01*
X76413471Y-56300046D01*
X76460302Y-56054553D01*
X76461417Y-56043330D01*
X76464078Y-55766098D01*
X76463179Y-55754856D01*
X76421070Y-55508508D01*
X76418389Y-55498178D01*
X76335476Y-55262732D01*
X76331092Y-55253001D01*
X76209694Y-55034892D01*
X76203734Y-55026039D01*
X76047322Y-54831502D01*
X76039956Y-54823780D01*
X75853003Y-54658378D01*
X75844440Y-54652007D01*
X75794267Y-54620899D01*
X75820506Y-54605319D01*
X75829189Y-54599114D01*
X76019283Y-54437331D01*
X76026796Y-54429752D01*
X76186914Y-54238254D01*
X76193042Y-54229517D01*
X76318606Y-54013779D01*
X76323175Y-54004134D01*
X76410593Y-53770323D01*
X76413471Y-53760046D01*
X76460302Y-53514553D01*
X76461417Y-53503330D01*
X76464078Y-53226098D01*
X76463179Y-53214856D01*
X76421070Y-52968508D01*
X76418389Y-52958178D01*
X76335476Y-52722732D01*
X76331092Y-52713001D01*
X76209694Y-52494892D01*
X76203734Y-52486039D01*
X76047322Y-52291502D01*
X76039956Y-52283780D01*
X75853003Y-52118378D01*
X75844440Y-52112007D01*
X75794267Y-52080899D01*
X75820506Y-52065319D01*
X75829189Y-52059114D01*
X76019283Y-51897331D01*
X76026796Y-51889752D01*
X76186914Y-51698254D01*
X76193042Y-51689517D01*
X76318606Y-51473779D01*
X76323175Y-51464134D01*
X76410593Y-51230323D01*
X76413471Y-51220046D01*
X76460302Y-50974553D01*
X76461417Y-50963330D01*
X76464078Y-50686098D01*
X76463179Y-50674856D01*
X76421070Y-50428508D01*
X76418389Y-50418178D01*
X76335476Y-50182732D01*
X76331092Y-50173001D01*
X76209694Y-49954892D01*
X76203734Y-49946039D01*
X76047322Y-49751502D01*
X76039956Y-49743780D01*
X75853003Y-49578378D01*
X75844440Y-49572007D01*
X75794267Y-49540899D01*
X75820506Y-49525319D01*
X75829189Y-49519114D01*
X76019283Y-49357331D01*
X76026796Y-49349752D01*
X76186914Y-49158254D01*
X76193042Y-49149517D01*
X76318606Y-48933779D01*
X76323175Y-48924134D01*
X76410593Y-48690323D01*
X76413471Y-48680046D01*
X76460302Y-48434553D01*
X76461417Y-48423330D01*
X76464078Y-48146098D01*
X76463179Y-48134856D01*
X76421070Y-47888508D01*
X76418389Y-47878178D01*
X76335476Y-47642732D01*
X76331092Y-47633001D01*
X76209694Y-47414892D01*
X76203734Y-47406039D01*
X76047322Y-47211502D01*
X76039956Y-47203780D01*
X75853003Y-47038378D01*
X75844440Y-47032007D01*
X75794267Y-47000899D01*
X75820506Y-46985319D01*
X75829189Y-46979114D01*
X76019283Y-46817331D01*
X76026796Y-46809752D01*
X76186914Y-46618254D01*
X76193042Y-46609517D01*
X76318606Y-46393779D01*
X76323175Y-46384134D01*
X76410593Y-46150323D01*
X76413471Y-46140046D01*
X76460302Y-45894553D01*
X76461417Y-45883330D01*
X76464078Y-45606098D01*
X76463179Y-45594856D01*
X76421070Y-45348508D01*
X76418389Y-45338178D01*
X76335476Y-45102732D01*
X76331092Y-45093001D01*
X76209694Y-44874892D01*
X76203734Y-44866039D01*
X76047322Y-44671502D01*
X76039956Y-44663780D01*
X75853003Y-44498378D01*
X75844440Y-44492007D01*
X75794267Y-44460899D01*
X75820506Y-44445319D01*
X75829189Y-44439114D01*
X76019283Y-44277331D01*
X76026796Y-44269752D01*
X76186914Y-44078254D01*
X76193042Y-44069517D01*
X76318606Y-43853779D01*
X76323175Y-43844134D01*
X76410593Y-43610323D01*
X76413471Y-43600046D01*
X76460302Y-43354553D01*
X76461417Y-43343330D01*
X76464078Y-43066098D01*
X76463179Y-43054856D01*
X76421070Y-42808508D01*
X76418389Y-42798178D01*
X76335476Y-42562732D01*
X76331092Y-42553001D01*
X76209694Y-42334892D01*
X76203734Y-42326039D01*
X76047322Y-42131502D01*
X76039956Y-42123780D01*
X75853003Y-41958378D01*
X75844440Y-41952007D01*
X75794267Y-41920898D01*
X75849423Y-41888149D01*
X75864772Y-41765791D01*
X74982191Y-40883210D01*
X74877809Y-40883210D01*
X73999677Y-41761342D01*
X74007470Y-41875654D01*
X74066930Y-41920786D01*
X73925311Y-42024056D01*
X73917250Y-42031051D01*
X73743225Y-42210005D01*
X73736458Y-42218257D01*
X73670656Y-42314000D01*
X73405000Y-42314000D01*
X73405000Y-40827687D01*
X73409646Y-40889477D01*
X73411343Y-40900013D01*
X73471731Y-41142218D01*
X73475179Y-41152317D01*
X73575512Y-41380883D01*
X73580613Y-41390258D01*
X73698619Y-41569224D01*
X73817665Y-41581316D01*
X74696790Y-40702191D01*
X74696790Y-40597809D01*
X75163210Y-40597809D01*
X75163210Y-40702191D01*
X76046689Y-41585670D01*
X76169655Y-41569699D01*
X76318606Y-41313779D01*
X76323175Y-41304134D01*
X76410593Y-41070323D01*
X76413471Y-41060046D01*
X76460302Y-40814553D01*
X76461417Y-40803330D01*
X76464078Y-40526098D01*
X76463179Y-40514856D01*
X76421070Y-40268508D01*
X76418389Y-40258178D01*
X76335476Y-40022732D01*
X76331092Y-40013001D01*
X76209694Y-39794892D01*
X76203733Y-39786038D01*
X76154540Y-39724856D01*
X76042244Y-39718775D01*
X75163210Y-40597809D01*
X74696790Y-40597809D01*
X73818412Y-39719431D01*
X73700728Y-39730245D01*
X73595073Y-39883975D01*
X73589793Y-39893249D01*
X73485090Y-40119847D01*
X73481448Y-40129879D01*
X73416422Y-40370878D01*
X73414523Y-40381380D01*
X73405000Y-40482124D01*
X73405000Y-38287687D01*
X73409646Y-38349477D01*
G37*
D19*
X73409646Y-38349477D02*
X73411343Y-38360013D01*
X73471731Y-38602218D01*
X73475179Y-38612317D01*
X73575512Y-38840884D01*
X73580613Y-38850258D01*
X73718023Y-39058650D01*
X73724630Y-39067031D01*
X73895187Y-39249294D01*
X73903112Y-39256442D01*
X74066929Y-39380786D01*
X74008851Y-39423137D01*
X73999847Y-39538828D01*
X74877809Y-40416790D01*
X74982191Y-40416790D01*
X75863082Y-39535899D01*
X75849080Y-39414885D01*
X75794266Y-39380899D01*
X75820506Y-39365319D01*
X75829189Y-39359114D01*
X76019283Y-39197331D01*
X76026796Y-39189752D01*
X76186914Y-38998254D01*
X76188495Y-38996000D01*
X77251009Y-38996000D01*
X77231747Y-39015261D01*
X77225874Y-39022036D01*
X77212310Y-39040134D01*
X77157873Y-39101772D01*
X77148016Y-39116778D01*
X77136524Y-39141255D01*
X77120306Y-39162896D01*
X77111684Y-39178643D01*
X77082817Y-39255648D01*
X77047784Y-39330265D01*
X77042475Y-39347819D01*
X77038638Y-39373493D01*
X77028964Y-39399299D01*
X77025109Y-39416833D01*
X77018134Y-39510693D01*
X77014694Y-39533710D01*
X77014001Y-39543034D01*
X77014001Y-39566306D01*
X77007644Y-39651836D01*
X77008865Y-39669748D01*
X77014001Y-39693808D01*
X77014000Y-49116319D01*
X77007644Y-49201836D01*
X77008865Y-49219748D01*
X77014001Y-49243808D01*
X77014000Y-60066319D01*
X77007644Y-60151836D01*
X77008865Y-60169748D01*
X77014001Y-60193808D01*
X77014000Y-70633008D01*
X72733009Y-74914000D01*
X64550790Y-74914000D01*
X64528067Y-74869405D01*
X64522894Y-74860963D01*
X64363677Y-74641820D01*
X64357247Y-74634291D01*
X64165709Y-74442753D01*
X64158180Y-74436323D01*
X63939037Y-74277106D01*
X63930595Y-74271933D01*
X63689243Y-74148958D01*
X63680095Y-74145169D01*
X63422477Y-74061463D01*
X63412849Y-74059152D01*
X63145308Y-74016778D01*
X63135437Y-74016001D01*
X62864563Y-74016001D01*
X62854692Y-74016778D01*
X62587151Y-74059152D01*
X62577523Y-74061463D01*
X62319905Y-74145169D01*
X62310757Y-74148958D01*
X62069405Y-74271933D01*
X62060963Y-74277106D01*
X61841820Y-74436323D01*
X61834291Y-74442753D01*
X61642753Y-74634291D01*
X61636323Y-74641820D01*
X61477106Y-74860963D01*
X61471933Y-74869405D01*
X61348958Y-75110757D01*
X61345169Y-75119905D01*
X61261463Y-75377523D01*
X61259152Y-75387151D01*
X61216778Y-75654692D01*
X61216001Y-75664563D01*
X61216001Y-75935437D01*
X61216778Y-75945308D01*
X61259152Y-76212849D01*
X61261463Y-76222477D01*
X61345169Y-76480095D01*
X61348958Y-76489243D01*
X61471933Y-76730595D01*
X61477106Y-76739037D01*
X61636323Y-76958180D01*
X61642753Y-76965709D01*
X61834291Y-77157247D01*
X61841820Y-77163677D01*
X62060963Y-77322894D01*
X62069405Y-77328067D01*
X62310757Y-77451042D01*
X62319905Y-77454831D01*
X62577523Y-77538537D01*
X62587151Y-77540848D01*
X62854692Y-77583222D01*
X62864563Y-77583999D01*
X63135437Y-77583999D01*
X63145308Y-77583222D01*
X63412849Y-77540848D01*
X63422477Y-77538537D01*
X63680095Y-77454831D01*
X63689243Y-77451042D01*
X63930595Y-77328067D01*
X63939037Y-77322894D01*
X64158180Y-77163677D01*
X64165709Y-77157247D01*
X64357247Y-76965709D01*
X64363677Y-76958180D01*
X64522894Y-76739037D01*
X64528067Y-76730595D01*
X64550790Y-76686000D01*
X73000742Y-76686000D01*
X73019370Y-76690215D01*
X73037265Y-76691655D01*
X73128413Y-76686000D01*
X73159053Y-76686000D01*
X73167995Y-76685363D01*
X73190394Y-76682155D01*
X73272463Y-76677063D01*
X73290043Y-76673423D01*
X73315476Y-76664242D01*
X73342248Y-76660408D01*
X73359479Y-76655369D01*
X73434353Y-76621327D01*
X73511877Y-76593340D01*
X73528044Y-76584680D01*
X73548908Y-76569241D01*
X73573998Y-76557834D01*
X73589123Y-76548161D01*
X73660428Y-76486720D01*
X73679131Y-76472881D01*
X73686215Y-76466777D01*
X73702659Y-76450332D01*
X73767645Y-76394337D01*
X73779447Y-76380808D01*
X73792828Y-76360163D01*
X78039928Y-72113064D01*
X78047880Y-72128339D01*
X78178990Y-72284590D01*
X78195879Y-72298761D01*
X78370120Y-72399359D01*
X78390837Y-72406900D01*
X78583538Y-72440878D01*
X78594499Y-72441837D01*
X80408258Y-72441837D01*
X80424634Y-72439681D01*
X80703859Y-72364863D01*
X80728339Y-72352120D01*
X80874000Y-72229896D01*
X80874000Y-93252191D01*
X80947809Y-93326000D01*
X104384143Y-93326000D01*
X104388170Y-93372491D01*
X104389576Y-93381345D01*
X104395898Y-93408513D01*
X104397956Y-93436532D01*
X104399331Y-93445786D01*
X104401781Y-93456651D01*
X104401865Y-93457022D01*
X104466711Y-93736786D01*
X104469351Y-93745353D01*
X104479438Y-93771360D01*
X104485423Y-93798808D01*
X104488087Y-93807772D01*
X104492042Y-93818184D01*
X104492179Y-93818542D01*
X104595798Y-94086379D01*
X104599619Y-94094490D01*
X104613270Y-94118816D01*
X104623062Y-94145147D01*
X104626966Y-94153653D01*
X104632350Y-94163403D01*
X104632533Y-94163733D01*
X104772855Y-94414295D01*
X104777780Y-94421786D01*
X104794724Y-94443949D01*
X104808128Y-94468635D01*
X104813187Y-94476500D01*
X104819890Y-94485395D01*
X104820122Y-94485701D01*
X104994351Y-94713994D01*
X105000282Y-94720716D01*
X105020177Y-94740266D01*
X105036927Y-94762821D01*
X105043046Y-94769897D01*
X105050936Y-94777758D01*
X105051206Y-94778026D01*
X105255863Y-94979492D01*
X105262682Y-94985311D01*
X105285130Y-95001861D01*
X105304896Y-95021835D01*
X105311955Y-95027982D01*
X105320875Y-95034652D01*
X105321176Y-95034876D01*
X105552176Y-95205496D01*
X105559748Y-95210296D01*
X105584305Y-95223519D01*
X105606686Y-95240507D01*
X105614542Y-95245598D01*
X105624312Y-95250945D01*
X105624641Y-95251124D01*
X105877376Y-95387492D01*
X105885548Y-95391178D01*
X105911727Y-95400810D01*
X105936276Y-95414474D01*
X105944760Y-95418403D01*
X105955185Y-95422321D01*
X105955546Y-95422456D01*
X106224979Y-95521854D01*
X106233589Y-95524351D01*
X106260866Y-95530199D01*
X106287089Y-95540265D01*
X106296044Y-95542960D01*
X106306919Y-95545371D01*
X106307292Y-95545452D01*
X106588042Y-95605896D01*
X106596918Y-95607155D01*
X106624741Y-95609101D01*
X106652131Y-95615374D01*
X106661386Y-95616781D01*
X106672491Y-95617634D01*
X106672864Y-95617661D01*
X106959324Y-95637944D01*
X106968289Y-95637940D01*
X107023266Y-95634000D01*
X110735119Y-95634000D01*
X110747806Y-95636616D01*
X110757084Y-95637821D01*
X110768206Y-95638432D01*
X110768585Y-95638451D01*
X111147405Y-95656979D01*
X111491474Y-95707787D01*
X111828958Y-95791931D01*
X112156613Y-95908604D01*
X112471321Y-96056694D01*
X112770076Y-96234787D01*
X113050040Y-96441195D01*
X113308499Y-96673911D01*
X113543041Y-96930769D01*
X113751383Y-97209267D01*
X113931561Y-97506774D01*
X114081842Y-97820437D01*
X114200804Y-98147281D01*
X114287300Y-98484159D01*
X114340509Y-98827876D01*
X114360736Y-99189659D01*
X114360795Y-99206705D01*
X114361463Y-99215646D01*
X114366000Y-99246559D01*
X114366001Y-105735114D01*
X114363384Y-105747806D01*
X114362179Y-105757084D01*
X114361568Y-105768206D01*
X114361549Y-105768585D01*
X114343021Y-106147405D01*
X114292213Y-106491474D01*
X114208069Y-106828958D01*
X114091396Y-107156613D01*
X113943306Y-107471321D01*
X113765213Y-107770076D01*
X113558809Y-108050034D01*
X113326074Y-108308513D01*
X113069242Y-108543033D01*
X112790740Y-108751379D01*
X112493233Y-108931557D01*
X112179557Y-109081844D01*
X111852726Y-109200802D01*
X111515834Y-109287300D01*
X111172132Y-109340509D01*
X110810341Y-109360736D01*
X110793295Y-109360795D01*
X110784354Y-109361463D01*
X110753441Y-109366000D01*
X44264881Y-109366000D01*
X44252194Y-109363384D01*
X44242916Y-109362179D01*
X44231794Y-109361568D01*
X44231415Y-109361549D01*
X43852595Y-109343021D01*
X43508526Y-109292213D01*
X43171042Y-109208069D01*
X42843387Y-109091396D01*
X42528679Y-108943306D01*
X42229924Y-108765213D01*
X41949966Y-108558809D01*
X41691487Y-108326074D01*
X41456967Y-108069242D01*
X41248621Y-107790740D01*
X41068443Y-107493233D01*
X40918156Y-107179557D01*
X40799198Y-106852726D01*
X40712700Y-106515834D01*
X40659491Y-106172132D01*
X40639264Y-105810341D01*
X40639205Y-105793295D01*
X40638537Y-105784354D01*
X40634000Y-105753441D01*
X40634000Y-102518419D01*
X42361002Y-102518419D01*
X42361460Y-102529548D01*
X42361477Y-102529924D01*
X42368354Y-102675750D01*
X42369411Y-102684652D01*
X42373928Y-102708219D01*
X42374456Y-102732410D01*
X42375353Y-102741719D01*
X42377239Y-102752695D01*
X42377305Y-102753072D01*
X42421233Y-102999680D01*
X42423428Y-103008373D01*
X42434429Y-103041732D01*
X42440957Y-103076446D01*
X42443362Y-103085483D01*
X42447015Y-103096005D01*
X42447142Y-103096366D01*
X42530757Y-103332488D01*
X42534343Y-103340704D01*
X42550643Y-103371818D01*
X42562755Y-103405004D01*
X42566605Y-103413531D01*
X42571929Y-103423313D01*
X42572111Y-103423645D01*
X42693167Y-103642938D01*
X42698046Y-103650458D01*
X42719209Y-103678491D01*
X42736576Y-103709249D01*
X42741765Y-103717030D01*
X42748614Y-103725812D01*
X42748850Y-103726113D01*
X42904098Y-103922692D01*
X42910141Y-103929315D01*
X42935593Y-103953509D01*
X42957758Y-103981028D01*
X42964149Y-103987857D01*
X42972341Y-103995403D01*
X42972623Y-103995661D01*
X43157893Y-104164243D01*
X43164937Y-104169790D01*
X43194002Y-104189506D01*
X43220356Y-104213026D01*
X43227774Y-104218719D01*
X43237089Y-104224825D01*
X43237411Y-104225035D01*
X43447728Y-104361095D01*
X43455582Y-104365417D01*
X43487477Y-104380121D01*
X43517319Y-104399023D01*
X43525567Y-104403427D01*
X43535753Y-104407930D01*
X43536106Y-104408085D01*
X43765820Y-104507968D01*
X43774275Y-104510950D01*
X43808149Y-104520248D01*
X43840678Y-104534023D01*
X43849542Y-104537022D01*
X43860328Y-104539801D01*
X43860694Y-104539894D01*
X44103635Y-104600916D01*
X44112463Y-104602476D01*
X44147396Y-104606117D01*
X44181741Y-104614394D01*
X44190978Y-104615906D01*
X44202073Y-104616885D01*
X44202447Y-104616917D01*
X44452090Y-104637442D01*
X44461054Y-104637539D01*
X44519773Y-104634000D01*
X58965555Y-104634000D01*
X59009065Y-104638688D01*
X59018420Y-104638998D01*
X59029548Y-104638540D01*
X59029924Y-104638523D01*
X59175750Y-104631646D01*
X59184652Y-104630589D01*
X59208219Y-104626072D01*
X59232410Y-104625544D01*
X59241719Y-104624647D01*
X59252695Y-104622761D01*
X59253072Y-104622695D01*
X59499680Y-104578767D01*
X59508373Y-104576572D01*
X59541732Y-104565571D01*
X59576446Y-104559043D01*
X59585483Y-104556638D01*
X59596005Y-104552985D01*
X59596366Y-104552858D01*
X59832488Y-104469243D01*
X59840704Y-104465657D01*
X59871818Y-104449357D01*
X59905004Y-104437245D01*
X59913531Y-104433395D01*
X59923313Y-104428071D01*
X59923645Y-104427889D01*
X60142938Y-104306833D01*
X60150458Y-104301954D01*
X60178491Y-104280791D01*
X60209249Y-104263424D01*
X60217030Y-104258235D01*
X60225812Y-104251386D01*
X60226113Y-104251150D01*
X60422692Y-104095902D01*
X60429315Y-104089859D01*
X60453509Y-104064407D01*
X60481028Y-104042242D01*
X60487857Y-104035851D01*
X60495403Y-104027659D01*
X60495661Y-104027377D01*
X60664243Y-103842107D01*
X60669790Y-103835063D01*
X60689506Y-103805998D01*
X60713026Y-103779644D01*
X60718719Y-103772226D01*
X60724825Y-103762911D01*
X60725035Y-103762589D01*
X60861095Y-103552272D01*
X60865417Y-103544418D01*
X60880121Y-103512523D01*
X60899023Y-103482681D01*
X60903427Y-103474433D01*
X60907930Y-103464247D01*
X60908085Y-103463894D01*
X61007968Y-103234180D01*
X61010950Y-103225725D01*
X61020248Y-103191851D01*
X61034023Y-103159322D01*
X61037022Y-103150458D01*
X61039801Y-103139672D01*
X61039894Y-103139306D01*
X61100916Y-102896365D01*
X61102476Y-102887537D01*
X61106117Y-102852604D01*
X61114394Y-102818259D01*
X61115906Y-102809022D01*
X61116885Y-102797927D01*
X61116917Y-102797553D01*
X61137442Y-102547910D01*
X61137539Y-102538945D01*
X61136303Y-102518419D01*
X93861002Y-102518419D01*
X93861460Y-102529548D01*
X93861477Y-102529924D01*
X93868354Y-102675750D01*
X93869411Y-102684652D01*
X93873928Y-102708219D01*
X93874456Y-102732410D01*
X93875353Y-102741719D01*
X93877239Y-102752695D01*
X93877305Y-102753072D01*
X93921233Y-102999680D01*
X93923428Y-103008373D01*
X93934429Y-103041732D01*
X93940957Y-103076446D01*
X93943362Y-103085483D01*
X93947015Y-103096005D01*
X93947142Y-103096366D01*
X94030757Y-103332488D01*
X94034343Y-103340704D01*
X94050643Y-103371818D01*
X94062755Y-103405004D01*
X94066605Y-103413531D01*
X94071929Y-103423313D01*
X94072111Y-103423645D01*
X94193167Y-103642938D01*
X94198046Y-103650458D01*
X94219209Y-103678491D01*
X94236576Y-103709249D01*
X94241765Y-103717030D01*
X94248614Y-103725812D01*
X94248850Y-103726113D01*
X94404098Y-103922692D01*
X94410141Y-103929315D01*
X94435593Y-103953509D01*
X94457758Y-103981028D01*
X94464149Y-103987857D01*
X94472341Y-103995403D01*
X94472623Y-103995661D01*
X94657893Y-104164243D01*
X94664937Y-104169790D01*
X94694002Y-104189506D01*
X94720356Y-104213026D01*
X94727774Y-104218719D01*
X94737089Y-104224825D01*
X94737411Y-104225035D01*
X94947728Y-104361095D01*
X94955582Y-104365417D01*
X94987477Y-104380121D01*
X95017319Y-104399023D01*
X95025567Y-104403427D01*
X95035753Y-104407930D01*
X95036106Y-104408085D01*
X95265820Y-104507968D01*
X95274275Y-104510950D01*
X95308149Y-104520248D01*
X95340678Y-104534023D01*
X95349542Y-104537022D01*
X95360328Y-104539801D01*
X95360694Y-104539894D01*
X95603635Y-104600916D01*
X95612463Y-104602476D01*
X95647396Y-104606117D01*
X95681741Y-104614394D01*
X95690978Y-104615906D01*
X95702073Y-104616885D01*
X95702447Y-104616917D01*
X95952090Y-104637442D01*
X95961054Y-104637539D01*
X96019773Y-104634000D01*
X110465555Y-104634000D01*
X110509065Y-104638688D01*
X110518420Y-104638998D01*
X110529548Y-104638540D01*
X110529924Y-104638523D01*
X110675750Y-104631646D01*
X110684652Y-104630589D01*
X110708219Y-104626072D01*
X110732410Y-104625544D01*
X110741719Y-104624647D01*
X110752695Y-104622761D01*
X110753072Y-104622695D01*
X110999680Y-104578767D01*
X111008373Y-104576572D01*
X111041732Y-104565571D01*
X111076446Y-104559043D01*
X111085483Y-104556638D01*
X111096005Y-104552985D01*
X111096366Y-104552858D01*
X111332488Y-104469243D01*
X111340704Y-104465657D01*
X111371818Y-104449357D01*
X111405004Y-104437245D01*
X111413531Y-104433395D01*
X111423313Y-104428071D01*
X111423645Y-104427889D01*
X111642938Y-104306833D01*
X111650458Y-104301954D01*
X111678491Y-104280791D01*
X111709249Y-104263424D01*
X111717030Y-104258235D01*
X111725812Y-104251386D01*
X111726113Y-104251150D01*
X111922692Y-104095902D01*
X111929315Y-104089859D01*
X111953509Y-104064407D01*
X111981028Y-104042242D01*
X111987857Y-104035851D01*
X111995403Y-104027659D01*
X111995661Y-104027377D01*
X112164243Y-103842107D01*
X112169790Y-103835063D01*
X112189506Y-103805998D01*
X112213026Y-103779644D01*
X112218719Y-103772226D01*
X112224825Y-103762911D01*
X112225035Y-103762589D01*
X112361095Y-103552272D01*
X112365417Y-103544418D01*
X112380121Y-103512523D01*
X112399023Y-103482681D01*
X112403427Y-103474433D01*
X112407930Y-103464247D01*
X112408085Y-103463894D01*
X112507968Y-103234180D01*
X112510950Y-103225725D01*
X112520248Y-103191851D01*
X112534023Y-103159322D01*
X112537022Y-103150458D01*
X112539801Y-103139672D01*
X112539894Y-103139306D01*
X112600916Y-102896365D01*
X112602476Y-102887537D01*
X112606117Y-102852604D01*
X112614394Y-102818259D01*
X112615906Y-102809022D01*
X112616885Y-102797927D01*
X112616917Y-102797553D01*
X112637442Y-102547910D01*
X112637539Y-102538945D01*
X112636096Y-102514995D01*
X112638688Y-102490936D01*
X112638998Y-102481581D01*
X112638540Y-102470452D01*
X112638523Y-102470076D01*
X112631646Y-102324249D01*
X112630589Y-102315348D01*
X112626072Y-102291781D01*
X112625544Y-102267591D01*
X112624648Y-102258283D01*
X112622761Y-102247306D01*
X112622695Y-102246928D01*
X112578767Y-102000320D01*
X112576572Y-101991628D01*
X112565570Y-101958265D01*
X112559043Y-101923554D01*
X112556638Y-101914517D01*
X112552985Y-101903996D01*
X112552858Y-101903635D01*
X112469243Y-101667512D01*
X112465657Y-101659295D01*
X112449357Y-101628183D01*
X112437246Y-101594997D01*
X112433395Y-101586469D01*
X112428071Y-101576687D01*
X112427889Y-101576355D01*
X112306833Y-101357063D01*
X112301953Y-101349542D01*
X112280793Y-101321511D01*
X112263425Y-101290752D01*
X112258236Y-101282971D01*
X112251386Y-101274188D01*
X112251150Y-101273887D01*
X112095902Y-101077308D01*
X112089859Y-101070685D01*
X112064407Y-101046491D01*
X112042242Y-101018972D01*
X112035851Y-101012143D01*
X112027659Y-101004597D01*
X112027377Y-101004339D01*
X111842107Y-100835757D01*
X111835063Y-100830210D01*
X111805998Y-100810494D01*
X111779644Y-100786974D01*
X111772226Y-100781281D01*
X111762911Y-100775175D01*
X111762589Y-100774965D01*
X111552272Y-100638905D01*
X111544418Y-100634583D01*
X111512523Y-100619879D01*
X111482680Y-100600976D01*
X111474427Y-100596570D01*
X111464240Y-100592067D01*
X111463891Y-100591915D01*
X111234180Y-100492032D01*
X111225725Y-100489050D01*
X111191849Y-100479751D01*
X111159326Y-100465980D01*
X111150472Y-100462983D01*
X111139687Y-100460203D01*
X111139310Y-100460107D01*
X110896365Y-100399084D01*
X110887538Y-100397524D01*
X110852604Y-100393883D01*
X110818260Y-100385606D01*
X110809023Y-100384094D01*
X110797928Y-100383115D01*
X110797554Y-100383083D01*
X110547910Y-100362558D01*
X110538946Y-100362461D01*
X110480227Y-100366000D01*
X96034445Y-100366000D01*
X95990935Y-100361312D01*
X95981580Y-100361002D01*
X95970452Y-100361460D01*
X95970076Y-100361477D01*
X95824249Y-100368354D01*
X95815348Y-100369411D01*
X95791781Y-100373928D01*
X95767591Y-100374456D01*
X95758283Y-100375352D01*
X95747306Y-100377239D01*
X95746928Y-100377305D01*
X95500320Y-100421233D01*
X95491628Y-100423428D01*
X95458265Y-100434430D01*
X95423554Y-100440957D01*
X95414517Y-100443362D01*
X95403996Y-100447015D01*
X95403635Y-100447142D01*
X95167512Y-100530757D01*
X95159295Y-100534343D01*
X95128183Y-100550643D01*
X95094997Y-100562754D01*
X95086469Y-100566605D01*
X95076687Y-100571929D01*
X95076355Y-100572111D01*
X94857063Y-100693167D01*
X94849542Y-100698047D01*
X94821511Y-100719207D01*
X94790752Y-100736575D01*
X94782971Y-100741764D01*
X94774188Y-100748614D01*
X94773887Y-100748850D01*
X94577308Y-100904098D01*
X94570685Y-100910141D01*
X94546491Y-100935593D01*
X94518972Y-100957758D01*
X94512143Y-100964149D01*
X94504597Y-100972341D01*
X94504339Y-100972623D01*
X94335757Y-101157893D01*
X94330210Y-101164937D01*
X94310494Y-101194002D01*
X94286974Y-101220356D01*
X94281281Y-101227774D01*
X94275175Y-101237089D01*
X94274965Y-101237411D01*
X94138905Y-101447728D01*
X94134583Y-101455582D01*
X94119879Y-101487477D01*
X94100976Y-101517320D01*
X94096570Y-101525573D01*
X94092067Y-101535760D01*
X94091915Y-101536109D01*
X93992032Y-101765820D01*
X93989050Y-101774275D01*
X93979751Y-101808151D01*
X93965980Y-101840674D01*
X93962983Y-101849528D01*
X93960203Y-101860313D01*
X93960107Y-101860690D01*
X93899084Y-102103635D01*
X93897524Y-102112462D01*
X93893883Y-102147396D01*
X93885606Y-102181740D01*
X93884094Y-102190977D01*
X93883115Y-102202072D01*
X93883083Y-102202446D01*
X93862558Y-102452090D01*
X93862461Y-102461055D01*
X93863904Y-102485005D01*
X93861312Y-102509064D01*
X93861002Y-102518419D01*
X61136303Y-102518419D01*
X61136096Y-102514995D01*
X61138688Y-102490936D01*
X61138998Y-102481581D01*
X61138540Y-102470452D01*
X61138523Y-102470076D01*
X61131646Y-102324249D01*
X61130589Y-102315348D01*
X61126072Y-102291781D01*
X61125544Y-102267591D01*
X61124648Y-102258283D01*
X61122761Y-102247306D01*
X61122695Y-102246928D01*
X61078767Y-102000320D01*
X61076572Y-101991628D01*
X61065570Y-101958265D01*
X61059043Y-101923554D01*
X61056638Y-101914517D01*
X61052985Y-101903996D01*
X61052858Y-101903635D01*
X60969243Y-101667512D01*
X60965657Y-101659295D01*
X60949357Y-101628183D01*
X60937246Y-101594997D01*
X60933395Y-101586469D01*
X60928071Y-101576687D01*
X60927889Y-101576355D01*
X60806833Y-101357063D01*
X60801953Y-101349542D01*
X60780793Y-101321511D01*
X60763425Y-101290752D01*
X60758236Y-101282971D01*
X60751386Y-101274188D01*
X60751150Y-101273887D01*
X60595902Y-101077308D01*
X60589859Y-101070685D01*
X60564407Y-101046491D01*
X60542242Y-101018972D01*
X60535851Y-101012143D01*
X60527659Y-101004597D01*
X60527377Y-101004339D01*
X60342107Y-100835757D01*
X60335063Y-100830210D01*
X60305998Y-100810494D01*
X60279644Y-100786974D01*
X60272226Y-100781281D01*
X60262911Y-100775175D01*
X60262589Y-100774965D01*
X60052272Y-100638905D01*
X60044418Y-100634583D01*
X60012523Y-100619879D01*
X59982680Y-100600976D01*
X59974427Y-100596570D01*
X59964240Y-100592067D01*
X59963891Y-100591915D01*
X59734180Y-100492032D01*
X59725725Y-100489050D01*
X59691849Y-100479751D01*
X59659326Y-100465980D01*
X59650472Y-100462983D01*
X59639687Y-100460203D01*
X59639310Y-100460107D01*
X59396365Y-100399084D01*
X59387538Y-100397524D01*
X59352604Y-100393883D01*
X59318260Y-100385606D01*
X59309023Y-100384094D01*
X59297928Y-100383115D01*
X59297554Y-100383083D01*
X59047910Y-100362558D01*
X59038946Y-100362461D01*
X58980227Y-100366000D01*
X44534445Y-100366000D01*
X44490935Y-100361312D01*
X44481580Y-100361002D01*
X44470452Y-100361460D01*
X44470076Y-100361477D01*
X44324249Y-100368354D01*
X44315348Y-100369411D01*
X44291781Y-100373928D01*
X44267591Y-100374456D01*
X44258283Y-100375352D01*
X44247306Y-100377239D01*
X44246928Y-100377305D01*
X44000320Y-100421233D01*
X43991628Y-100423428D01*
X43958265Y-100434430D01*
X43923554Y-100440957D01*
X43914517Y-100443362D01*
X43903996Y-100447015D01*
X43903635Y-100447142D01*
X43667512Y-100530757D01*
X43659295Y-100534343D01*
X43628183Y-100550643D01*
X43594997Y-100562754D01*
X43586469Y-100566605D01*
X43576687Y-100571929D01*
X43576355Y-100572111D01*
X43357063Y-100693167D01*
X43349542Y-100698047D01*
X43321511Y-100719207D01*
X43290752Y-100736575D01*
X43282971Y-100741764D01*
X43274188Y-100748614D01*
X43273887Y-100748850D01*
X43077308Y-100904098D01*
X43070685Y-100910141D01*
X43046491Y-100935593D01*
X43018972Y-100957758D01*
X43012143Y-100964149D01*
X43004597Y-100972341D01*
X43004339Y-100972623D01*
X42835757Y-101157893D01*
X42830210Y-101164937D01*
X42810494Y-101194002D01*
X42786974Y-101220356D01*
X42781281Y-101227774D01*
X42775175Y-101237089D01*
X42774965Y-101237411D01*
X42638905Y-101447728D01*
X42634583Y-101455582D01*
X42619879Y-101487477D01*
X42600976Y-101517320D01*
X42596570Y-101525573D01*
X42592067Y-101535760D01*
X42591915Y-101536109D01*
X42492032Y-101765820D01*
X42489050Y-101774275D01*
X42479751Y-101808151D01*
X42465980Y-101840674D01*
X42462983Y-101849528D01*
X42460203Y-101860313D01*
X42460107Y-101860690D01*
X42399084Y-102103635D01*
X42397524Y-102112462D01*
X42393883Y-102147396D01*
X42385606Y-102181740D01*
X42384094Y-102190977D01*
X42383115Y-102202072D01*
X42383083Y-102202446D01*
X42362558Y-102452090D01*
X42362461Y-102461055D01*
X42363904Y-102485005D01*
X42361312Y-102509064D01*
X42361002Y-102518419D01*
X40634000Y-102518419D01*
X40634000Y-99264881D01*
X40636616Y-99252194D01*
X40637821Y-99242916D01*
X40638432Y-99231794D01*
X40638451Y-99231415D01*
X40656979Y-98852595D01*
X40707787Y-98508526D01*
X40791931Y-98171042D01*
X40908604Y-97843387D01*
X41056694Y-97528679D01*
X41234787Y-97229924D01*
X41441195Y-96949960D01*
X41673911Y-96691501D01*
X41930769Y-96456959D01*
X42209267Y-96248617D01*
X42506774Y-96068439D01*
X42820437Y-95918158D01*
X43147281Y-95799196D01*
X43484159Y-95712700D01*
X43827876Y-95659491D01*
X44189659Y-95639264D01*
X44206705Y-95639205D01*
X44215646Y-95638537D01*
X44246559Y-95634000D01*
X47953165Y-95634000D01*
X47983985Y-95638550D01*
X47993311Y-95639227D01*
X48004448Y-95639207D01*
X48004833Y-95639206D01*
X48040923Y-95638922D01*
X48049859Y-95638215D01*
X48057571Y-95637049D01*
X48065544Y-95637592D01*
X48074895Y-95637535D01*
X48085997Y-95636642D01*
X48086379Y-95636610D01*
X48372491Y-95611830D01*
X48381345Y-95610424D01*
X48408513Y-95604102D01*
X48436532Y-95602044D01*
X48445786Y-95600669D01*
X48456651Y-95598219D01*
X48457022Y-95598135D01*
X48736786Y-95533289D01*
X48745353Y-95530649D01*
X48771360Y-95520562D01*
X48798808Y-95514577D01*
X48807772Y-95511913D01*
X48818184Y-95507958D01*
X48818542Y-95507821D01*
X49086379Y-95404202D01*
X49094490Y-95400381D01*
X49118816Y-95386730D01*
X49145147Y-95376938D01*
X49153653Y-95373034D01*
X49163403Y-95367650D01*
X49163733Y-95367467D01*
X49414295Y-95227145D01*
X49421786Y-95222220D01*
X49443949Y-95205276D01*
X49468635Y-95191872D01*
X49476500Y-95186813D01*
X49485395Y-95180110D01*
X49485701Y-95179878D01*
X49713994Y-95005649D01*
X49720716Y-94999718D01*
X49740266Y-94979823D01*
X49762821Y-94963073D01*
X49769897Y-94956954D01*
X49777758Y-94949064D01*
X49778026Y-94948794D01*
X49979492Y-94744137D01*
X49985311Y-94737318D01*
X50001861Y-94714870D01*
X50021835Y-94695104D01*
X50027982Y-94688045D01*
X50034652Y-94679125D01*
X50034876Y-94678824D01*
X50205496Y-94447824D01*
X50210296Y-94440252D01*
X50223519Y-94415695D01*
X50240507Y-94393314D01*
X50245598Y-94385458D01*
X50250945Y-94375688D01*
X50251124Y-94375359D01*
X50387492Y-94122624D01*
X50391178Y-94114452D01*
X50400810Y-94088273D01*
X50414474Y-94063724D01*
X50418403Y-94055240D01*
X50422321Y-94044815D01*
X50422456Y-94044454D01*
X50521854Y-93775021D01*
X50524351Y-93766411D01*
X50530199Y-93739134D01*
X50540265Y-93712911D01*
X50542960Y-93703956D01*
X50545371Y-93693081D01*
X50545452Y-93692708D01*
X50605896Y-93411958D01*
X50607155Y-93403082D01*
X50609101Y-93375259D01*
X50615374Y-93347869D01*
X50616781Y-93338614D01*
X50617634Y-93327509D01*
X50617661Y-93327136D01*
X50637944Y-93040676D01*
X50637940Y-93031711D01*
X50634000Y-92976734D01*
X50634000Y-92490133D01*
X61890886Y-92490133D01*
X61900001Y-92605949D01*
X62060963Y-92722894D01*
X62069405Y-92728067D01*
X62310757Y-92851042D01*
X62319905Y-92854831D01*
X62577523Y-92938537D01*
X62587151Y-92940848D01*
X62854692Y-92983222D01*
X62864563Y-92983999D01*
X63135437Y-92983999D01*
X63145308Y-92983222D01*
X63412849Y-92940848D01*
X63422477Y-92938537D01*
X63680095Y-92854831D01*
X63689243Y-92851042D01*
X63930595Y-92728067D01*
X63939037Y-92722894D01*
X64099999Y-92605949D01*
X64109114Y-92490133D01*
X63052191Y-91433210D01*
X62947809Y-91433210D01*
X61890886Y-92490133D01*
X50634000Y-92490133D01*
X50634000Y-91064563D01*
X61216001Y-91064563D01*
X61216001Y-91335437D01*
X61216778Y-91345308D01*
X61259152Y-91612849D01*
X61261463Y-91622477D01*
X61345169Y-91880095D01*
X61348958Y-91889243D01*
X61471933Y-92130595D01*
X61477106Y-92139037D01*
X61594051Y-92299999D01*
X61709867Y-92309114D01*
X62766790Y-91252191D01*
X62766790Y-91147809D01*
X63233210Y-91147809D01*
X63233210Y-91252191D01*
X64290133Y-92309114D01*
X64405949Y-92299999D01*
X64522894Y-92139037D01*
X64528067Y-92130595D01*
X64651042Y-91889243D01*
X64654831Y-91880095D01*
X64738537Y-91622477D01*
X64740848Y-91612849D01*
X64783222Y-91345308D01*
X64783999Y-91335437D01*
X64783999Y-91064563D01*
X64783222Y-91054692D01*
X64740848Y-90787151D01*
X64738537Y-90777523D01*
X64654831Y-90519905D01*
X64651042Y-90510757D01*
X64528067Y-90269405D01*
X64522894Y-90260963D01*
X64405949Y-90100001D01*
X64290133Y-90090886D01*
X63233210Y-91147809D01*
X62766790Y-91147809D01*
X61709867Y-90090886D01*
X61594051Y-90100001D01*
X61477106Y-90260963D01*
X61471933Y-90269405D01*
X61348958Y-90510757D01*
X61345169Y-90519905D01*
X61261463Y-90777523D01*
X61259152Y-90787151D01*
X61216778Y-91054692D01*
X61216001Y-91064563D01*
X50634000Y-91064563D01*
X50634000Y-89909867D01*
X61890886Y-89909867D01*
X62947809Y-90966790D01*
X63052191Y-90966790D01*
X64109114Y-89909867D01*
X64099999Y-89794051D01*
X63939037Y-89677106D01*
X63930595Y-89671933D01*
X63689243Y-89548958D01*
X63680095Y-89545169D01*
X63422477Y-89461463D01*
X63412849Y-89459152D01*
X63145308Y-89416778D01*
X63135437Y-89416001D01*
X62864563Y-89416001D01*
X62854692Y-89416778D01*
X62587151Y-89459152D01*
X62577523Y-89461463D01*
X62319905Y-89545169D01*
X62310757Y-89548958D01*
X62069405Y-89671933D01*
X62060963Y-89677106D01*
X61900001Y-89794051D01*
X61890886Y-89909867D01*
X50634000Y-89909867D01*
X50634000Y-58041258D01*
X73330703Y-58165284D01*
X73405000Y-58091393D01*
X73405000Y-56067687D01*
X73409646Y-56129477D01*
X73411343Y-56140013D01*
X73471731Y-56382218D01*
X73475179Y-56392317D01*
X73575512Y-56620884D01*
X73580613Y-56630258D01*
X73718023Y-56838650D01*
X73724630Y-56847031D01*
X73895187Y-57029294D01*
X73903112Y-57036442D01*
X74101941Y-57187361D01*
X74110957Y-57193071D01*
X74332371Y-57308332D01*
X74342220Y-57312442D01*
X74579889Y-57388749D01*
X74590290Y-57391140D01*
X74837417Y-57426312D01*
X74848072Y-57426917D01*
X75097593Y-57419948D01*
X75108198Y-57418749D01*
X75352977Y-57369837D01*
X75363228Y-57366868D01*
X75596267Y-57277413D01*
X75605871Y-57272760D01*
X75820506Y-57145319D01*
X75829188Y-57139114D01*
X76019283Y-56977331D01*
X76026796Y-56969752D01*
X76186914Y-56778254D01*
X76193042Y-56769517D01*
X76318606Y-56553779D01*
X76323175Y-56544134D01*
X76410593Y-56310323D01*
X76413471Y-56300046D01*
X76460302Y-56054553D01*
X76461417Y-56043330D01*
X76464078Y-55766098D01*
X76463179Y-55754856D01*
X76421070Y-55508508D01*
X76418389Y-55498178D01*
X76335476Y-55262732D01*
X76331092Y-55253001D01*
X76209694Y-55034892D01*
X76203734Y-55026039D01*
X76047322Y-54831502D01*
X76039956Y-54823780D01*
X75853003Y-54658378D01*
X75844440Y-54652007D01*
X75794267Y-54620899D01*
X75820506Y-54605319D01*
X75829189Y-54599114D01*
X76019283Y-54437331D01*
X76026796Y-54429752D01*
X76186914Y-54238254D01*
X76193042Y-54229517D01*
X76318606Y-54013779D01*
X76323175Y-54004134D01*
X76410593Y-53770323D01*
X76413471Y-53760046D01*
X76460302Y-53514553D01*
X76461417Y-53503330D01*
X76464078Y-53226098D01*
X76463179Y-53214856D01*
X76421070Y-52968508D01*
X76418389Y-52958178D01*
X76335476Y-52722732D01*
X76331092Y-52713001D01*
X76209694Y-52494892D01*
X76203734Y-52486039D01*
X76047322Y-52291502D01*
X76039956Y-52283780D01*
X75853003Y-52118378D01*
X75844440Y-52112007D01*
X75794267Y-52080899D01*
X75820506Y-52065319D01*
X75829189Y-52059114D01*
X76019283Y-51897331D01*
X76026796Y-51889752D01*
X76186914Y-51698254D01*
X76193042Y-51689517D01*
X76318606Y-51473779D01*
X76323175Y-51464134D01*
X76410593Y-51230323D01*
X76413471Y-51220046D01*
X76460302Y-50974553D01*
X76461417Y-50963330D01*
X76464078Y-50686098D01*
X76463179Y-50674856D01*
X76421070Y-50428508D01*
X76418389Y-50418178D01*
X76335476Y-50182732D01*
X76331092Y-50173001D01*
X76209694Y-49954892D01*
X76203734Y-49946039D01*
X76047322Y-49751502D01*
X76039956Y-49743780D01*
X75853003Y-49578378D01*
X75844440Y-49572007D01*
X75794267Y-49540899D01*
X75820506Y-49525319D01*
X75829189Y-49519114D01*
X76019283Y-49357331D01*
X76026796Y-49349752D01*
X76186914Y-49158254D01*
X76193042Y-49149517D01*
X76318606Y-48933779D01*
X76323175Y-48924134D01*
X76410593Y-48690323D01*
X76413471Y-48680046D01*
X76460302Y-48434553D01*
X76461417Y-48423330D01*
X76464078Y-48146098D01*
X76463179Y-48134856D01*
X76421070Y-47888508D01*
X76418389Y-47878178D01*
X76335476Y-47642732D01*
X76331092Y-47633001D01*
X76209694Y-47414892D01*
X76203734Y-47406039D01*
X76047322Y-47211502D01*
X76039956Y-47203780D01*
X75853003Y-47038378D01*
X75844440Y-47032007D01*
X75794267Y-47000899D01*
X75820506Y-46985319D01*
X75829189Y-46979114D01*
X76019283Y-46817331D01*
X76026796Y-46809752D01*
X76186914Y-46618254D01*
X76193042Y-46609517D01*
X76318606Y-46393779D01*
X76323175Y-46384134D01*
X76410593Y-46150323D01*
X76413471Y-46140046D01*
X76460302Y-45894553D01*
X76461417Y-45883330D01*
X76464078Y-45606098D01*
X76463179Y-45594856D01*
X76421070Y-45348508D01*
X76418389Y-45338178D01*
X76335476Y-45102732D01*
X76331092Y-45093001D01*
X76209694Y-44874892D01*
X76203734Y-44866039D01*
X76047322Y-44671502D01*
X76039956Y-44663780D01*
X75853003Y-44498378D01*
X75844440Y-44492007D01*
X75794267Y-44460899D01*
X75820506Y-44445319D01*
X75829189Y-44439114D01*
X76019283Y-44277331D01*
X76026796Y-44269752D01*
X76186914Y-44078254D01*
X76193042Y-44069517D01*
X76318606Y-43853779D01*
X76323175Y-43844134D01*
X76410593Y-43610323D01*
X76413471Y-43600046D01*
X76460302Y-43354553D01*
X76461417Y-43343330D01*
X76464078Y-43066098D01*
X76463179Y-43054856D01*
X76421070Y-42808508D01*
X76418389Y-42798178D01*
X76335476Y-42562732D01*
X76331092Y-42553001D01*
X76209694Y-42334892D01*
X76203734Y-42326039D01*
X76047322Y-42131502D01*
X76039956Y-42123780D01*
X75853003Y-41958378D01*
X75844440Y-41952007D01*
X75794267Y-41920898D01*
X75849423Y-41888149D01*
X75864772Y-41765791D01*
X74982191Y-40883210D01*
X74877809Y-40883210D01*
X73999677Y-41761342D01*
X74007470Y-41875654D01*
X74066930Y-41920786D01*
X73925311Y-42024056D01*
X73917250Y-42031051D01*
X73743225Y-42210005D01*
X73736458Y-42218257D01*
X73670656Y-42314000D01*
X73405000Y-42314000D01*
X73405000Y-40827687D01*
X73409646Y-40889477D01*
X73411343Y-40900013D01*
X73471731Y-41142218D01*
X73475179Y-41152317D01*
X73575512Y-41380883D01*
X73580613Y-41390258D01*
X73698619Y-41569224D01*
X73817665Y-41581316D01*
X74696790Y-40702191D01*
X74696790Y-40597809D01*
X75163210Y-40597809D01*
X75163210Y-40702191D01*
X76046689Y-41585670D01*
X76169655Y-41569699D01*
X76318606Y-41313779D01*
X76323175Y-41304134D01*
X76410593Y-41070323D01*
X76413471Y-41060046D01*
X76460302Y-40814553D01*
X76461417Y-40803330D01*
X76464078Y-40526098D01*
X76463179Y-40514856D01*
X76421070Y-40268508D01*
X76418389Y-40258178D01*
X76335476Y-40022732D01*
X76331092Y-40013001D01*
X76209694Y-39794892D01*
X76203733Y-39786038D01*
X76154540Y-39724856D01*
X76042244Y-39718775D01*
X75163210Y-40597809D01*
X74696790Y-40597809D01*
X73818412Y-39719431D01*
X73700728Y-39730245D01*
X73595073Y-39883975D01*
X73589793Y-39893249D01*
X73485090Y-40119847D01*
X73481448Y-40129879D01*
X73416422Y-40370878D01*
X73414523Y-40381380D01*
X73405000Y-40482124D01*
X73405000Y-38287687D01*
X73409646Y-38349477D01*
M02*
