G04 #@! TF.GenerationSoftware,KiCad,Pcbnew,(5.99.0-1932-g3091bb145)*
G04 #@! TF.CreationDate,2020-07-21T07:54:26+02:00*
G04 #@! TF.ProjectId,RESTfan,52455354-6661-46e2-9e6b-696361645f70,rev?*
G04 #@! TF.SameCoordinates,Original*
G04 #@! TF.FileFunction,Soldermask,Bot*
G04 #@! TF.FilePolarity,Negative*
%FSLAX46Y46*%
G04 Gerber Fmt 4.6, Leading zero omitted, Abs format (unit mm)*
G04 Created by KiCad (PCBNEW (5.99.0-1932-g3091bb145)) date 2020-07-21 07:54:26*
%MOMM*%
%LPD*%
G01*
G04 APERTURE LIST*
%ADD10C,2.300000*%
%ADD11R,2.300000X2.000000*%
%ADD12C,3.500120*%
%ADD13R,3.500120X3.500120*%
%ADD14C,1.800000*%
%ADD15R,0.800000X0.900000*%
%ADD16C,1.600000*%
%ADD17R,1.800000X1.600000*%
%ADD18R,1.200000X0.900000*%
G04 APERTURE END LIST*
D10*
X63000000Y-75800000D03*
X92400000Y-81000000D03*
D11*
X92400000Y-86000000D03*
D10*
X63000000Y-91200000D03*
D12*
X102000000Y-64390000D03*
X102000000Y-59945000D03*
D13*
X102000000Y-55500000D03*
D12*
X102000000Y-42110000D03*
X102000000Y-46555000D03*
D13*
X102000000Y-51000000D03*
D12*
X102000000Y-37080000D03*
D13*
X102000000Y-32000000D03*
D14*
X74930000Y-55890000D03*
X52070000Y-55890000D03*
X74930000Y-53350000D03*
X52070000Y-53350000D03*
X74930000Y-50810000D03*
X52070000Y-50810000D03*
X74930000Y-48270000D03*
X52070000Y-48270000D03*
X74930000Y-45730000D03*
X52070000Y-45730000D03*
X74930000Y-43190000D03*
X52070000Y-43190000D03*
X74930000Y-40650000D03*
X52070000Y-40650000D03*
X74930000Y-38110000D03*
X52070000Y-38110000D03*
G36*
G01*
X66200000Y-52337500D02*
X66200000Y-51425000D01*
G75*
G02*
X66443750Y-51181250I243750J0D01*
G01*
X66931250Y-51181250D01*
G75*
G02*
X67175000Y-51425000I0J-243750D01*
G01*
X67175000Y-52337500D01*
G75*
G02*
X66931250Y-52581250I-243750J0D01*
G01*
X66443750Y-52581250D01*
G75*
G02*
X66200000Y-52337500I0J243750D01*
G01*
G37*
G36*
G01*
X64325000Y-52337500D02*
X64325000Y-51425000D01*
G75*
G02*
X64568750Y-51181250I243750J0D01*
G01*
X65056250Y-51181250D01*
G75*
G02*
X65300000Y-51425000I0J-243750D01*
G01*
X65300000Y-52337500D01*
G75*
G02*
X65056250Y-52581250I-243750J0D01*
G01*
X64568750Y-52581250D01*
G75*
G02*
X64325000Y-52337500I0J243750D01*
G01*
G37*
G36*
G01*
X70200000Y-52337500D02*
X70200000Y-51425000D01*
G75*
G02*
X70443750Y-51181250I243750J0D01*
G01*
X70931250Y-51181250D01*
G75*
G02*
X71175000Y-51425000I0J-243750D01*
G01*
X71175000Y-52337500D01*
G75*
G02*
X70931250Y-52581250I-243750J0D01*
G01*
X70443750Y-52581250D01*
G75*
G02*
X70200000Y-52337500I0J243750D01*
G01*
G37*
G36*
G01*
X68325000Y-52337500D02*
X68325000Y-51425000D01*
G75*
G02*
X68568750Y-51181250I243750J0D01*
G01*
X69056250Y-51181250D01*
G75*
G02*
X69300000Y-51425000I0J-243750D01*
G01*
X69300000Y-52337500D01*
G75*
G02*
X69056250Y-52581250I-243750J0D01*
G01*
X68568750Y-52581250D01*
G75*
G02*
X68325000Y-52337500I0J243750D01*
G01*
G37*
G36*
G01*
X69237500Y-41693750D02*
X69237500Y-42606250D01*
G75*
G02*
X68993750Y-42850000I-243750J0D01*
G01*
X68506250Y-42850000D01*
G75*
G02*
X68262500Y-42606250I0J243750D01*
G01*
X68262500Y-41693750D01*
G75*
G02*
X68506250Y-41450000I243750J0D01*
G01*
X68993750Y-41450000D01*
G75*
G02*
X69237500Y-41693750I0J-243750D01*
G01*
G37*
G36*
G01*
X71112500Y-41693750D02*
X71112500Y-42606250D01*
G75*
G02*
X70868750Y-42850000I-243750J0D01*
G01*
X70381250Y-42850000D01*
G75*
G02*
X70137500Y-42606250I0J243750D01*
G01*
X70137500Y-41693750D01*
G75*
G02*
X70381250Y-41450000I243750J0D01*
G01*
X70868750Y-41450000D01*
G75*
G02*
X71112500Y-41693750I0J-243750D01*
G01*
G37*
G36*
G01*
X65237500Y-41693750D02*
X65237500Y-42606250D01*
G75*
G02*
X64993750Y-42850000I-243750J0D01*
G01*
X64506250Y-42850000D01*
G75*
G02*
X64262500Y-42606250I0J243750D01*
G01*
X64262500Y-41693750D01*
G75*
G02*
X64506250Y-41450000I243750J0D01*
G01*
X64993750Y-41450000D01*
G75*
G02*
X65237500Y-41693750I0J-243750D01*
G01*
G37*
G36*
G01*
X67112500Y-41693750D02*
X67112500Y-42606250D01*
G75*
G02*
X66868750Y-42850000I-243750J0D01*
G01*
X66381250Y-42850000D01*
G75*
G02*
X66137500Y-42606250I0J243750D01*
G01*
X66137500Y-41693750D01*
G75*
G02*
X66381250Y-41450000I243750J0D01*
G01*
X66868750Y-41450000D01*
G75*
G02*
X67112500Y-41693750I0J-243750D01*
G01*
G37*
D15*
X65750000Y-56631250D03*
X66700000Y-54631250D03*
X64800000Y-54631250D03*
X69750000Y-56631250D03*
X70700000Y-54631250D03*
X68800000Y-54631250D03*
X69750000Y-37400000D03*
X68800000Y-39400000D03*
X70700000Y-39400000D03*
X65750000Y-37400000D03*
X64800000Y-39400000D03*
X66700000Y-39400000D03*
D16*
X92200000Y-71000000D03*
X97280000Y-71000000D03*
X87120000Y-71000000D03*
X79500000Y-63380000D03*
D17*
X79500000Y-71000000D03*
D16*
X97280000Y-63380000D03*
X92200000Y-63380000D03*
X87120000Y-63380000D03*
X92200000Y-60000000D03*
X97280000Y-60000000D03*
X87120000Y-60000000D03*
X79500000Y-52380000D03*
D17*
X79500000Y-60000000D03*
D16*
X97280000Y-52380000D03*
X92200000Y-52380000D03*
X87120000Y-52380000D03*
X92200000Y-49000000D03*
X97280000Y-49000000D03*
X87120000Y-49000000D03*
X79500000Y-41380000D03*
D17*
X79500000Y-49000000D03*
D16*
X97280000Y-41380000D03*
X92200000Y-41380000D03*
X87120000Y-41380000D03*
X92200000Y-38000000D03*
X97280000Y-38000000D03*
X87120000Y-38000000D03*
X79500000Y-30380000D03*
D17*
X79500000Y-38000000D03*
D16*
X97280000Y-30380000D03*
X92200000Y-30380000D03*
X87120000Y-30380000D03*
D18*
X79500000Y-65600000D03*
X79500000Y-68900000D03*
X79500000Y-54600000D03*
X79500000Y-57900000D03*
X79500000Y-43600000D03*
X79500000Y-46900000D03*
X79500000Y-32600000D03*
X79500000Y-35900000D03*
M02*
