G04 #@! TF.GenerationSoftware,KiCad,Pcbnew,(5.99.0-1932-g3091bb145)*
G04 #@! TF.CreationDate,2020-07-21T07:54:26+02:00*
G04 #@! TF.ProjectId,RESTfan,52455354-6661-46e2-9e6b-696361645f70,rev?*
G04 #@! TF.SameCoordinates,Original*
G04 #@! TF.FileFunction,Soldermask,Top*
G04 #@! TF.FilePolarity,Negative*
%FSLAX46Y46*%
G04 Gerber Fmt 4.6, Leading zero omitted, Abs format (unit mm)*
G04 Created by KiCad (PCBNEW (5.99.0-1932-g3091bb145)) date 2020-07-21 07:54:26*
%MOMM*%
%LPD*%
G01*
G04 APERTURE LIST*
%ADD10C,2.300000*%
%ADD11R,2.300000X2.000000*%
%ADD12C,3.500120*%
%ADD13R,3.500120X3.500120*%
%ADD14C,1.800000*%
%ADD15C,1.600000*%
%ADD16R,1.800000X1.600000*%
G04 APERTURE END LIST*
D10*
X63000000Y-75800000D03*
X92400000Y-81000000D03*
D11*
X92400000Y-86000000D03*
D10*
X63000000Y-91200000D03*
D12*
X102000000Y-64390000D03*
X102000000Y-59945000D03*
D13*
X102000000Y-55500000D03*
D12*
X102000000Y-42110000D03*
X102000000Y-46555000D03*
D13*
X102000000Y-51000000D03*
D12*
X102000000Y-37080000D03*
D13*
X102000000Y-32000000D03*
D14*
X74930000Y-55890000D03*
X52070000Y-55890000D03*
X74930000Y-53350000D03*
X52070000Y-53350000D03*
X74930000Y-50810000D03*
X52070000Y-50810000D03*
X74930000Y-48270000D03*
X52070000Y-48270000D03*
X74930000Y-45730000D03*
X52070000Y-45730000D03*
X74930000Y-43190000D03*
X52070000Y-43190000D03*
X74930000Y-40650000D03*
X52070000Y-40650000D03*
X74930000Y-38110000D03*
X52070000Y-38110000D03*
D15*
X92200000Y-71000000D03*
X97280000Y-71000000D03*
X87120000Y-71000000D03*
X79500000Y-63380000D03*
D16*
X79500000Y-71000000D03*
D15*
X97280000Y-63380000D03*
X92200000Y-63380000D03*
X87120000Y-63380000D03*
X92200000Y-60000000D03*
X97280000Y-60000000D03*
X87120000Y-60000000D03*
X79500000Y-52380000D03*
D16*
X79500000Y-60000000D03*
D15*
X97280000Y-52380000D03*
X92200000Y-52380000D03*
X87120000Y-52380000D03*
X92200000Y-49000000D03*
X97280000Y-49000000D03*
X87120000Y-49000000D03*
X79500000Y-41380000D03*
D16*
X79500000Y-49000000D03*
D15*
X97280000Y-41380000D03*
X92200000Y-41380000D03*
X87120000Y-41380000D03*
X92200000Y-38000000D03*
X97280000Y-38000000D03*
X87120000Y-38000000D03*
X79500000Y-30380000D03*
D16*
X79500000Y-38000000D03*
D15*
X97280000Y-30380000D03*
X92200000Y-30380000D03*
X87120000Y-30380000D03*
M02*
