G04 #@! TF.GenerationSoftware,KiCad,Pcbnew,(5.99.0-1932-g3091bb145)*
G04 #@! TF.CreationDate,2020-07-21T07:54:25+02:00*
G04 #@! TF.ProjectId,RESTfan,52455354-6661-46e2-9e6b-696361645f70,rev?*
G04 #@! TF.SameCoordinates,Original*
G04 #@! TF.FileFunction,Legend,Top*
G04 #@! TF.FilePolarity,Positive*
%FSLAX46Y46*%
G04 Gerber Fmt 4.6, Leading zero omitted, Abs format (unit mm)*
G04 Created by KiCad (PCBNEW (5.99.0-1932-g3091bb145)) date 2020-07-21 07:54:25*
%MOMM*%
%LPD*%
G01*
G04 APERTURE LIST*
%ADD10C,0.200000*%
%ADD11C,0.300000*%
%ADD12C,0.150000*%
%ADD13C,0.120000*%
G04 APERTURE END LIST*
D10*
X81200000Y-93000000D02*
X81200000Y-28800000D01*
X104800000Y-93000000D02*
X81200000Y-93000000D01*
D11*
X52400000Y-34800000D02*
G75*
G02*
X51600000Y-35600000I-800000J0D01*
G01*
X52400000Y-28800000D02*
X52400000Y-34800000D01*
X50200000Y-35600000D02*
X51600000Y-35600000D01*
D12*
X89352380Y-84214285D02*
X88352380Y-84214285D01*
X88352380Y-83833333D01*
X88400000Y-83738095D01*
X88447619Y-83690476D01*
X88542857Y-83642857D01*
X88685714Y-83642857D01*
X88780952Y-83690476D01*
X88828571Y-83738095D01*
X88876190Y-83833333D01*
X88876190Y-84214285D01*
X89304761Y-83261904D02*
X89352380Y-83119047D01*
X89352380Y-82880952D01*
X89304761Y-82785714D01*
X89257142Y-82738095D01*
X89161904Y-82690476D01*
X89066666Y-82690476D01*
X88971428Y-82738095D01*
X88923809Y-82785714D01*
X88876190Y-82880952D01*
X88828571Y-83071428D01*
X88780952Y-83166666D01*
X88733333Y-83214285D01*
X88638095Y-83261904D01*
X88542857Y-83261904D01*
X88447619Y-83214285D01*
X88400000Y-83166666D01*
X88352380Y-83071428D01*
X88352380Y-82833333D01*
X88400000Y-82690476D01*
X89352380Y-81738095D02*
X89352380Y-82309523D01*
X89352380Y-82023809D02*
X88352380Y-82023809D01*
X88495238Y-82119047D01*
X88590476Y-82214285D01*
X88638095Y-82309523D01*
X86261904Y-67452380D02*
X86261904Y-66452380D01*
X86833333Y-67452380D02*
X86404761Y-66880952D01*
X86833333Y-66452380D02*
X86261904Y-67023809D01*
X87690476Y-66785714D02*
X87690476Y-67452380D01*
X87452380Y-66404761D02*
X87214285Y-67119047D01*
X87833333Y-67119047D01*
X86261904Y-56452380D02*
X86261904Y-55452380D01*
X86833333Y-56452380D02*
X86404761Y-55880952D01*
X86833333Y-55452380D02*
X86261904Y-56023809D01*
X87166666Y-55452380D02*
X87785714Y-55452380D01*
X87452380Y-55833333D01*
X87595238Y-55833333D01*
X87690476Y-55880952D01*
X87738095Y-55928571D01*
X87785714Y-56023809D01*
X87785714Y-56261904D01*
X87738095Y-56357142D01*
X87690476Y-56404761D01*
X87595238Y-56452380D01*
X87309523Y-56452380D01*
X87214285Y-56404761D01*
X87166666Y-56357142D01*
X86261904Y-45452380D02*
X86261904Y-44452380D01*
X86833333Y-45452380D02*
X86404761Y-44880952D01*
X86833333Y-44452380D02*
X86261904Y-45023809D01*
X87214285Y-44547619D02*
X87261904Y-44500000D01*
X87357142Y-44452380D01*
X87595238Y-44452380D01*
X87690476Y-44500000D01*
X87738095Y-44547619D01*
X87785714Y-44642857D01*
X87785714Y-44738095D01*
X87738095Y-44880952D01*
X87166666Y-45452380D01*
X87785714Y-45452380D01*
X86261904Y-34452380D02*
X86261904Y-33452380D01*
X86833333Y-34452380D02*
X86404761Y-33880952D01*
X86833333Y-33452380D02*
X86261904Y-34023809D01*
X87785714Y-34452380D02*
X87214285Y-34452380D01*
X87500000Y-34452380D02*
X87500000Y-33452380D01*
X87404761Y-33595238D01*
X87309523Y-33690476D01*
X87214285Y-33738095D01*
D13*
X95190000Y-87000000D02*
X95190000Y-84990000D01*
X60600000Y-93600000D02*
X94800000Y-93600000D01*
X60600000Y-73400000D02*
X60600000Y-93600000D01*
X94800000Y-73400000D02*
X60600000Y-73400000D01*
X94800000Y-93600000D02*
X94800000Y-73400000D01*
X78900000Y-66900000D02*
X78900000Y-67600000D01*
X80100000Y-66900000D02*
X78900000Y-66900000D01*
X80100000Y-67600000D02*
X80100000Y-66900000D01*
X78900000Y-67600000D02*
X80100000Y-67600000D01*
X79700000Y-67600000D02*
X79300000Y-66900000D01*
X79500000Y-66900000D02*
X79500000Y-65800000D01*
X79500000Y-67600000D02*
X79500000Y-68700000D01*
X98700000Y-62000000D02*
X98700000Y-72400000D01*
X78100000Y-62000000D02*
X98700000Y-62000000D01*
X78100000Y-72400000D02*
X78100000Y-62000000D01*
X98700000Y-72400000D02*
X78100000Y-72400000D01*
X77900000Y-72600000D02*
X77900000Y-71100000D01*
X79600000Y-72600000D02*
X77900000Y-72600000D01*
X78900000Y-55900000D02*
X78900000Y-56600000D01*
X80100000Y-55900000D02*
X78900000Y-55900000D01*
X80100000Y-56600000D02*
X80100000Y-55900000D01*
X78900000Y-56600000D02*
X80100000Y-56600000D01*
X79700000Y-56600000D02*
X79300000Y-55900000D01*
X79500000Y-55900000D02*
X79500000Y-54800000D01*
X79500000Y-56600000D02*
X79500000Y-57700000D01*
X98700000Y-51000000D02*
X98700000Y-61400000D01*
X78100000Y-51000000D02*
X98700000Y-51000000D01*
X78100000Y-61400000D02*
X78100000Y-51000000D01*
X98700000Y-61400000D02*
X78100000Y-61400000D01*
X77900000Y-61600000D02*
X77900000Y-60100000D01*
X79600000Y-61600000D02*
X77900000Y-61600000D01*
X78900000Y-44900000D02*
X78900000Y-45600000D01*
X80100000Y-44900000D02*
X78900000Y-44900000D01*
X80100000Y-45600000D02*
X80100000Y-44900000D01*
X78900000Y-45600000D02*
X80100000Y-45600000D01*
X79700000Y-45600000D02*
X79300000Y-44900000D01*
X79500000Y-44900000D02*
X79500000Y-43800000D01*
X79500000Y-45600000D02*
X79500000Y-46700000D01*
X98700000Y-40000000D02*
X98700000Y-50400000D01*
X78100000Y-40000000D02*
X98700000Y-40000000D01*
X78100000Y-50400000D02*
X78100000Y-40000000D01*
X98700000Y-50400000D02*
X78100000Y-50400000D01*
X77900000Y-50600000D02*
X77900000Y-49100000D01*
X79600000Y-50600000D02*
X77900000Y-50600000D01*
X78900000Y-33900000D02*
X78900000Y-34600000D01*
X80100000Y-33900000D02*
X78900000Y-33900000D01*
X80100000Y-34600000D02*
X80100000Y-33900000D01*
X78900000Y-34600000D02*
X80100000Y-34600000D01*
X79700000Y-34600000D02*
X79300000Y-33900000D01*
X79500000Y-33900000D02*
X79500000Y-32800000D01*
X79500000Y-34600000D02*
X79500000Y-35700000D01*
X98700000Y-29000000D02*
X98700000Y-39400000D01*
X78100000Y-29000000D02*
X98700000Y-29000000D01*
X78100000Y-39400000D02*
X78100000Y-29000000D01*
X98700000Y-39400000D02*
X78100000Y-39400000D01*
X77900000Y-39600000D02*
X77900000Y-38100000D01*
X79600000Y-39600000D02*
X77900000Y-39600000D01*
M02*
