G04 #@! TF.GenerationSoftware,KiCad,Pcbnew,(5.99.0-1932-g3091bb145)*
G04 #@! TF.CreationDate,2020-07-21T07:54:26+02:00*
G04 #@! TF.ProjectId,RESTfan,52455354-6661-46e2-9e6b-696361645f70,rev?*
G04 #@! TF.SameCoordinates,Original*
G04 #@! TF.FileFunction,Profile,NP*
%FSLAX46Y46*%
G04 Gerber Fmt 4.6, Leading zero omitted, Abs format (unit mm)*
G04 Created by KiCad (PCBNEW (5.99.0-1932-g3091bb145)) date 2020-07-21 07:54:26*
%MOMM*%
%LPD*%
G01*
G04 APERTURE LIST*
G04 #@! TA.AperFunction,Profile*
%ADD10C,0.050000*%
G04 #@! TD*
G04 APERTURE END LIST*
D10*
X44200000Y-110000000D02*
G75*
G02*
X40000000Y-105800000I0J4200000D01*
G01*
X40000000Y-99200000D02*
G75*
G02*
X44200000Y-95000000I4200000J0D01*
G01*
X115000000Y-105800000D02*
G75*
G02*
X110800000Y-110000000I-4200000J0D01*
G01*
X110800000Y-95000000D02*
G75*
G02*
X115000000Y-99200000I0J-4200000D01*
G01*
X96000000Y-104000000D02*
G75*
G02*
X94500000Y-102500000I0J1500000D01*
G01*
X110500000Y-101000000D02*
G75*
G02*
X112000000Y-102500000I0J-1500000D01*
G01*
X110500000Y-104000000D02*
X96000000Y-104000000D01*
X112000000Y-102500000D02*
G75*
G02*
X110500000Y-104000000I-1500000J0D01*
G01*
X94500000Y-102500000D02*
G75*
G02*
X96000000Y-101000000I1500000J0D01*
G01*
X96000000Y-101000000D02*
X110500000Y-101000000D01*
X59000000Y-101000000D02*
G75*
G02*
X60500000Y-102500000I0J-1500000D01*
G01*
X60500000Y-102500000D02*
G75*
G02*
X59000000Y-104000000I-1500000J0D01*
G01*
X44500000Y-104000000D02*
G75*
G02*
X43000000Y-102500000I0J1500000D01*
G01*
X43000000Y-102500000D02*
G75*
G02*
X44500000Y-101000000I1500000J0D01*
G01*
X59000000Y-104000000D02*
X44500000Y-104000000D01*
X44500000Y-101000000D02*
X59000000Y-101000000D01*
X50000000Y-30500000D02*
G75*
G02*
X52000000Y-28500000I2000000J0D01*
G01*
X103000000Y-28500000D02*
G75*
G02*
X105000000Y-30500000I0J-2000000D01*
G01*
X107000000Y-95000000D02*
G75*
G02*
X105000000Y-93000000I0J2000000D01*
G01*
X50000000Y-93000000D02*
G75*
G02*
X48000000Y-95000000I-2000000J0D01*
G01*
X44200000Y-110000000D02*
X110800000Y-110000000D01*
X40000000Y-99200000D02*
X40000000Y-105800000D01*
X48000000Y-95000000D02*
X44200000Y-95000000D01*
X50000000Y-30500000D02*
X50000000Y-93000000D01*
X115000000Y-99200000D02*
X115000000Y-105800000D01*
X107000000Y-95000000D02*
X110800000Y-95000000D01*
X105000000Y-30500000D02*
X105000000Y-93000000D01*
X52000000Y-28500000D02*
X103000000Y-28500000D01*
M02*
